M48
;GenerationSoftware,Autodesk,EAGLE,9.2.2*%
;CreationDate,2020-08-21T13:17:35Z*%
FMAT,2
ICI,OFF
METRIC,TZ,000.000
T6C0.813
T5C1.016
T4C1.118
T3C1.524
T2C1.905
%
G90
M71
T2
X62230Y80010
X6350Y80010
X62230Y5080
X10414Y7620
T3
X26670Y63754
X30797Y63754
X34925Y63754
X39053Y63754
X43180Y63754
T4
X26670Y72390
X39053Y72390
X34925Y67628
X43180Y67628
X30797Y72390
X30797Y67628
X26670Y67628
X39053Y67628
X43180Y72390
X34925Y72390
T5
X30607Y18796
X17018Y60325
X33147Y11176
X30607Y11176
X33147Y13716
X30607Y13716
X33147Y16256
X30607Y16256
X33147Y18796
X19812Y60325
X33147Y21336
X30607Y21336
X33147Y23876
X30607Y23876
X33147Y26416
X30607Y26416
X33147Y28956
X10097Y73344
X58991Y73660
X56451Y73660
X53911Y73660
X51371Y73660
X48831Y73660
X17715Y73530
X15176Y73468
X12636Y73406
X44640Y55372
X7558Y73282
X51816Y66252
X54610Y66252
X52451Y34290
X55245Y34290
X21717Y33782
X18923Y33782
X43878Y16002
X30607Y49276
X33147Y51816
X30607Y51816
X33147Y54356
X30607Y54356
X33147Y56896
X30607Y56896
X33147Y59436
X30607Y59436
X33147Y31496
X43878Y18542
X43878Y21082
X43878Y23622
X43878Y26162
X44640Y47752
X44640Y50292
X44640Y52832
X44640Y57912
X30607Y28956
X33147Y49276
X30607Y46736
X33147Y46736
X30607Y44196
X33147Y44196
X30607Y41656
X33147Y41656
X33147Y39116
X30607Y36576
X33147Y36576
X30607Y34036
X33147Y34036
X30607Y31496
X30607Y39116
T6
X57658Y60325
X57658Y52705
X57658Y50165
X57658Y57785
X57658Y55245
X57658Y47625
X57658Y45085
X50038Y13123
X50038Y15663
X50038Y18203
X50038Y20743
X50038Y25823
X50038Y23283
X57658Y62865
X50038Y62865
X50038Y60325
X50038Y57785
X50038Y55245
X50038Y52705
X50038Y50165
X50038Y47625
X50038Y45085
X24130Y48006
X24130Y40386
X24130Y37846
X16510Y42926
X24130Y27559
X24130Y19939
X24130Y17399
X24130Y25019
X24130Y22479
X24130Y14859
X24130Y12319
X16510Y37846
X16510Y40386
X24130Y30099
X16510Y45466
X16510Y48006
X16510Y50546
X16510Y53086
X16510Y55626
X24130Y55626
X24130Y53086
X24130Y45466
X24130Y42926
X57658Y13123
X50038Y28363
X50038Y30903
X57658Y30903
X57658Y28363
X57658Y20743
X57658Y18203
X57658Y25823
X57658Y23283
X57658Y15663
X24130Y50546
X16510Y12319
X16510Y14859
X16510Y17399
X16510Y19939
X16510Y22479
X16510Y25019
X16510Y27559
X16510Y30099
M30