G04 EAGLE Gerber RS-274X export*
G75*
%MOMM*%
%FSLAX34Y34*%
%LPD*%
%INTop Copper*%
%IPPOS*%
%AMOC8*
5,1,8,0,0,1.08239X$1,22.5*%
G01*
%ADD10C,0.130000*%
%ADD11C,0.152400*%
%ADD12C,1.524000*%
%ADD13P,1.649562X8X292.500000*%
%ADD14C,1.320800*%
%ADD15C,2.032000*%
%ADD16P,2.749271X8X22.500000*%
%ADD17P,2.749271X8X112.500000*%
%ADD18C,0.254000*%


D10*
X-6350Y825500D02*
X32200Y825500D01*
X32200Y25400D02*
X-6350Y25400D01*
X12700Y26050D02*
X12700Y824850D01*
X9508Y799500D01*
X15892Y799500D01*
X12700Y824850D01*
X11400Y799500D01*
X14000Y799500D02*
X12700Y824850D01*
X10100Y799500D01*
X15300Y799500D02*
X12700Y824850D01*
X9508Y51400D02*
X12700Y26050D01*
X9508Y51400D02*
X15892Y51400D01*
X12700Y26050D01*
X11400Y51400D01*
X14000Y51400D02*
X12700Y26050D01*
X10100Y51400D01*
X15300Y51400D02*
X12700Y26050D01*
D11*
X1677Y394391D02*
X1544Y394393D01*
X1412Y394399D01*
X1280Y394409D01*
X1148Y394422D01*
X1016Y394440D01*
X886Y394461D01*
X755Y394486D01*
X626Y394515D01*
X498Y394548D01*
X370Y394584D01*
X244Y394624D01*
X119Y394668D01*
X-5Y394716D01*
X-127Y394767D01*
X-248Y394822D01*
X-367Y394880D01*
X-485Y394942D01*
X-600Y395007D01*
X-714Y395076D01*
X-825Y395147D01*
X-934Y395223D01*
X-1041Y395301D01*
X-1146Y395382D01*
X-1248Y395467D01*
X-1348Y395554D01*
X-1445Y395644D01*
X-1540Y395737D01*
X-1631Y395833D01*
X-1720Y395931D01*
X-1806Y396032D01*
X-1889Y396136D01*
X-1969Y396242D01*
X-2045Y396350D01*
X-2119Y396460D01*
X-2189Y396573D01*
X-2256Y396687D01*
X-2319Y396804D01*
X-2379Y396922D01*
X-2436Y397042D01*
X-2489Y397164D01*
X-2538Y397287D01*
X-2584Y397411D01*
X-2626Y397537D01*
X-2664Y397664D01*
X-2699Y397792D01*
X-2730Y397921D01*
X-2757Y398050D01*
X-2780Y398181D01*
X-2800Y398312D01*
X-2815Y398444D01*
X-2827Y398576D01*
X-2835Y398708D01*
X-2839Y398841D01*
X-2839Y398973D01*
X-2835Y399106D01*
X-2827Y399238D01*
X-2815Y399370D01*
X-2800Y399502D01*
X-2780Y399633D01*
X-2757Y399764D01*
X-2730Y399893D01*
X-2699Y400022D01*
X-2664Y400150D01*
X-2626Y400277D01*
X-2584Y400403D01*
X-2538Y400527D01*
X-2489Y400650D01*
X-2436Y400772D01*
X-2379Y400892D01*
X-2319Y401010D01*
X-2256Y401127D01*
X-2189Y401241D01*
X-2119Y401354D01*
X-2045Y401464D01*
X-1969Y401572D01*
X-1889Y401678D01*
X-1806Y401782D01*
X-1720Y401883D01*
X-1631Y401981D01*
X-1540Y402077D01*
X-1445Y402170D01*
X-1348Y402260D01*
X-1248Y402347D01*
X-1146Y402432D01*
X-1041Y402513D01*
X-934Y402591D01*
X-825Y402667D01*
X-714Y402738D01*
X-600Y402807D01*
X-485Y402872D01*
X-367Y402934D01*
X-248Y402992D01*
X-127Y403047D01*
X-5Y403098D01*
X119Y403146D01*
X244Y403190D01*
X370Y403230D01*
X498Y403266D01*
X626Y403299D01*
X755Y403328D01*
X886Y403353D01*
X1016Y403374D01*
X1148Y403392D01*
X1280Y403405D01*
X1412Y403415D01*
X1544Y403421D01*
X1677Y403423D01*
X1810Y403421D01*
X1942Y403415D01*
X2074Y403405D01*
X2206Y403392D01*
X2338Y403374D01*
X2468Y403353D01*
X2599Y403328D01*
X2728Y403299D01*
X2856Y403266D01*
X2984Y403230D01*
X3110Y403190D01*
X3235Y403146D01*
X3359Y403098D01*
X3481Y403047D01*
X3602Y402992D01*
X3721Y402934D01*
X3839Y402872D01*
X3954Y402807D01*
X4068Y402738D01*
X4179Y402667D01*
X4288Y402591D01*
X4395Y402513D01*
X4500Y402432D01*
X4602Y402347D01*
X4702Y402260D01*
X4799Y402170D01*
X4894Y402077D01*
X4985Y401981D01*
X5074Y401883D01*
X5160Y401782D01*
X5243Y401678D01*
X5323Y401572D01*
X5399Y401464D01*
X5473Y401354D01*
X5543Y401241D01*
X5610Y401127D01*
X5673Y401010D01*
X5733Y400892D01*
X5790Y400772D01*
X5843Y400650D01*
X5892Y400527D01*
X5938Y400403D01*
X5980Y400277D01*
X6018Y400150D01*
X6053Y400022D01*
X6084Y399893D01*
X6111Y399764D01*
X6134Y399633D01*
X6154Y399502D01*
X6169Y399370D01*
X6181Y399238D01*
X6189Y399106D01*
X6193Y398973D01*
X6193Y398841D01*
X6189Y398708D01*
X6181Y398576D01*
X6169Y398444D01*
X6154Y398312D01*
X6134Y398181D01*
X6111Y398050D01*
X6084Y397921D01*
X6053Y397792D01*
X6018Y397664D01*
X5980Y397537D01*
X5938Y397411D01*
X5892Y397287D01*
X5843Y397164D01*
X5790Y397042D01*
X5733Y396922D01*
X5673Y396804D01*
X5610Y396687D01*
X5543Y396573D01*
X5473Y396460D01*
X5399Y396350D01*
X5323Y396242D01*
X5243Y396136D01*
X5160Y396032D01*
X5074Y395931D01*
X4985Y395833D01*
X4894Y395737D01*
X4799Y395644D01*
X4702Y395554D01*
X4602Y395467D01*
X4500Y395382D01*
X4395Y395301D01*
X4288Y395223D01*
X4179Y395147D01*
X4068Y395076D01*
X3954Y395007D01*
X3839Y394942D01*
X3721Y394880D01*
X3602Y394822D01*
X3481Y394767D01*
X3359Y394716D01*
X3235Y394668D01*
X3110Y394624D01*
X2984Y394584D01*
X2856Y394548D01*
X2728Y394515D01*
X2599Y394486D01*
X2468Y394461D01*
X2338Y394440D01*
X2206Y394422D01*
X2074Y394409D01*
X1942Y394399D01*
X1810Y394393D01*
X1677Y394391D01*
X-6451Y395295D02*
X-6570Y395297D01*
X-6690Y395303D01*
X-6809Y395313D01*
X-6927Y395327D01*
X-7046Y395344D01*
X-7163Y395366D01*
X-7280Y395391D01*
X-7395Y395421D01*
X-7510Y395454D01*
X-7624Y395491D01*
X-7736Y395531D01*
X-7847Y395576D01*
X-7956Y395624D01*
X-8064Y395675D01*
X-8170Y395730D01*
X-8274Y395789D01*
X-8376Y395851D01*
X-8476Y395916D01*
X-8574Y395985D01*
X-8670Y396057D01*
X-8763Y396132D01*
X-8853Y396209D01*
X-8941Y396290D01*
X-9026Y396374D01*
X-9108Y396461D01*
X-9188Y396550D01*
X-9264Y396642D01*
X-9338Y396736D01*
X-9408Y396833D01*
X-9475Y396931D01*
X-9539Y397032D01*
X-9599Y397136D01*
X-9656Y397241D01*
X-9709Y397348D01*
X-9759Y397456D01*
X-9805Y397566D01*
X-9847Y397678D01*
X-9886Y397791D01*
X-9921Y397905D01*
X-9952Y398020D01*
X-9980Y398137D01*
X-10003Y398254D01*
X-10023Y398371D01*
X-10039Y398490D01*
X-10051Y398609D01*
X-10059Y398728D01*
X-10063Y398847D01*
X-10063Y398967D01*
X-10059Y399086D01*
X-10051Y399205D01*
X-10039Y399324D01*
X-10023Y399443D01*
X-10003Y399560D01*
X-9980Y399677D01*
X-9952Y399794D01*
X-9921Y399909D01*
X-9886Y400023D01*
X-9847Y400136D01*
X-9805Y400248D01*
X-9759Y400358D01*
X-9709Y400466D01*
X-9656Y400573D01*
X-9599Y400678D01*
X-9539Y400782D01*
X-9475Y400883D01*
X-9408Y400981D01*
X-9338Y401078D01*
X-9264Y401172D01*
X-9188Y401264D01*
X-9108Y401353D01*
X-9026Y401440D01*
X-8941Y401524D01*
X-8853Y401605D01*
X-8763Y401682D01*
X-8670Y401757D01*
X-8574Y401829D01*
X-8476Y401898D01*
X-8376Y401963D01*
X-8274Y402025D01*
X-8170Y402084D01*
X-8064Y402139D01*
X-7956Y402190D01*
X-7847Y402238D01*
X-7736Y402283D01*
X-7624Y402323D01*
X-7510Y402360D01*
X-7395Y402393D01*
X-7280Y402423D01*
X-7163Y402448D01*
X-7046Y402470D01*
X-6927Y402487D01*
X-6809Y402501D01*
X-6690Y402511D01*
X-6570Y402517D01*
X-6451Y402519D01*
X-6332Y402517D01*
X-6212Y402511D01*
X-6093Y402501D01*
X-5975Y402487D01*
X-5856Y402470D01*
X-5739Y402448D01*
X-5622Y402423D01*
X-5507Y402393D01*
X-5392Y402360D01*
X-5278Y402323D01*
X-5166Y402283D01*
X-5055Y402238D01*
X-4946Y402190D01*
X-4838Y402139D01*
X-4732Y402084D01*
X-4628Y402025D01*
X-4526Y401963D01*
X-4426Y401898D01*
X-4328Y401829D01*
X-4232Y401757D01*
X-4139Y401682D01*
X-4049Y401605D01*
X-3961Y401524D01*
X-3876Y401440D01*
X-3794Y401353D01*
X-3714Y401264D01*
X-3638Y401172D01*
X-3564Y401078D01*
X-3494Y400981D01*
X-3427Y400883D01*
X-3363Y400782D01*
X-3303Y400678D01*
X-3246Y400573D01*
X-3193Y400466D01*
X-3143Y400358D01*
X-3097Y400248D01*
X-3055Y400136D01*
X-3016Y400023D01*
X-2981Y399909D01*
X-2950Y399794D01*
X-2922Y399677D01*
X-2899Y399560D01*
X-2879Y399443D01*
X-2863Y399324D01*
X-2851Y399205D01*
X-2843Y399086D01*
X-2839Y398967D01*
X-2839Y398847D01*
X-2843Y398728D01*
X-2851Y398609D01*
X-2863Y398490D01*
X-2879Y398371D01*
X-2899Y398254D01*
X-2922Y398137D01*
X-2950Y398020D01*
X-2981Y397905D01*
X-3016Y397791D01*
X-3055Y397678D01*
X-3097Y397566D01*
X-3143Y397456D01*
X-3193Y397348D01*
X-3246Y397241D01*
X-3303Y397136D01*
X-3363Y397032D01*
X-3427Y396931D01*
X-3494Y396833D01*
X-3564Y396736D01*
X-3638Y396642D01*
X-3714Y396550D01*
X-3794Y396461D01*
X-3876Y396374D01*
X-3961Y396290D01*
X-4049Y396209D01*
X-4139Y396132D01*
X-4232Y396057D01*
X-4328Y395985D01*
X-4426Y395916D01*
X-4526Y395851D01*
X-4628Y395789D01*
X-4732Y395730D01*
X-4838Y395675D01*
X-4946Y395624D01*
X-5055Y395576D01*
X-5166Y395531D01*
X-5278Y395491D01*
X-5392Y395454D01*
X-5507Y395421D01*
X-5622Y395391D01*
X-5739Y395366D01*
X-5856Y395344D01*
X-5975Y395327D01*
X-6093Y395313D01*
X-6212Y395303D01*
X-6332Y395297D01*
X-6451Y395295D01*
X-1935Y410023D02*
X-2255Y410027D01*
X-2574Y410038D01*
X-2894Y410057D01*
X-3212Y410084D01*
X-3530Y410118D01*
X-3847Y410160D01*
X-4163Y410210D01*
X-4478Y410267D01*
X-4791Y410331D01*
X-5103Y410403D01*
X-5413Y410482D01*
X-5720Y410569D01*
X-6026Y410663D01*
X-6329Y410764D01*
X-6630Y410873D01*
X-6928Y410988D01*
X-7224Y411111D01*
X-7516Y411241D01*
X-7805Y411378D01*
X-7806Y411377D02*
X-7914Y411416D01*
X-8021Y411459D01*
X-8126Y411505D01*
X-8230Y411556D01*
X-8332Y411609D01*
X-8432Y411666D01*
X-8530Y411727D01*
X-8625Y411791D01*
X-8719Y411858D01*
X-8810Y411929D01*
X-8899Y412002D01*
X-8985Y412079D01*
X-9068Y412158D01*
X-9149Y412240D01*
X-9227Y412325D01*
X-9301Y412413D01*
X-9373Y412503D01*
X-9441Y412595D01*
X-9507Y412690D01*
X-9569Y412787D01*
X-9627Y412886D01*
X-9683Y412988D01*
X-9734Y413090D01*
X-9782Y413195D01*
X-9827Y413301D01*
X-9868Y413409D01*
X-9905Y413518D01*
X-9938Y413628D01*
X-9967Y413740D01*
X-9993Y413852D01*
X-10015Y413965D01*
X-10032Y414079D01*
X-10046Y414193D01*
X-10056Y414308D01*
X-10062Y414423D01*
X-10064Y414538D01*
X-10063Y414538D02*
X-10061Y414653D01*
X-10055Y414768D01*
X-10045Y414883D01*
X-10031Y414997D01*
X-10014Y415111D01*
X-9992Y415224D01*
X-9966Y415336D01*
X-9937Y415448D01*
X-9904Y415558D01*
X-9867Y415667D01*
X-9826Y415775D01*
X-9781Y415881D01*
X-9733Y415986D01*
X-9682Y416088D01*
X-9626Y416189D01*
X-9568Y416289D01*
X-9506Y416386D01*
X-9441Y416480D01*
X-9372Y416573D01*
X-9300Y416663D01*
X-9226Y416751D01*
X-9148Y416836D01*
X-9067Y416918D01*
X-8984Y416997D01*
X-8898Y417074D01*
X-8809Y417147D01*
X-8718Y417218D01*
X-8624Y417285D01*
X-8529Y417349D01*
X-8431Y417410D01*
X-8331Y417467D01*
X-8229Y417520D01*
X-8125Y417571D01*
X-8020Y417617D01*
X-7913Y417660D01*
X-7805Y417699D01*
X-7805Y417698D02*
X-7516Y417835D01*
X-7224Y417965D01*
X-6928Y418088D01*
X-6630Y418203D01*
X-6329Y418312D01*
X-6026Y418413D01*
X-5720Y418507D01*
X-5413Y418594D01*
X-5103Y418673D01*
X-4791Y418745D01*
X-4478Y418809D01*
X-4163Y418866D01*
X-3847Y418916D01*
X-3530Y418958D01*
X-3212Y418992D01*
X-2894Y419019D01*
X-2574Y419038D01*
X-2255Y419049D01*
X-1935Y419053D01*
X-1935Y410023D02*
X-1615Y410027D01*
X-1296Y410038D01*
X-976Y410057D01*
X-658Y410084D01*
X-340Y410118D01*
X-23Y410160D01*
X293Y410210D01*
X608Y410267D01*
X921Y410331D01*
X1233Y410403D01*
X1543Y410482D01*
X1850Y410569D01*
X2156Y410663D01*
X2459Y410764D01*
X2760Y410873D01*
X3058Y410988D01*
X3354Y411111D01*
X3646Y411241D01*
X3935Y411378D01*
X3936Y411377D02*
X4044Y411416D01*
X4151Y411459D01*
X4256Y411505D01*
X4360Y411556D01*
X4462Y411609D01*
X4562Y411666D01*
X4660Y411727D01*
X4755Y411791D01*
X4849Y411858D01*
X4940Y411929D01*
X5029Y412002D01*
X5115Y412079D01*
X5198Y412158D01*
X5279Y412240D01*
X5357Y412325D01*
X5431Y412413D01*
X5503Y412503D01*
X5572Y412596D01*
X5637Y412690D01*
X5699Y412787D01*
X5757Y412887D01*
X5813Y412988D01*
X5864Y413090D01*
X5912Y413195D01*
X5957Y413301D01*
X5998Y413409D01*
X6035Y413518D01*
X6068Y413628D01*
X6097Y413740D01*
X6123Y413852D01*
X6145Y413965D01*
X6162Y414079D01*
X6176Y414193D01*
X6186Y414308D01*
X6192Y414423D01*
X6194Y414538D01*
X3935Y417698D02*
X3646Y417835D01*
X3354Y417965D01*
X3058Y418088D01*
X2760Y418203D01*
X2459Y418312D01*
X2156Y418413D01*
X1850Y418507D01*
X1543Y418594D01*
X1233Y418673D01*
X921Y418745D01*
X608Y418809D01*
X293Y418866D01*
X-23Y418916D01*
X-340Y418958D01*
X-658Y418992D01*
X-976Y419019D01*
X-1296Y419038D01*
X-1615Y419049D01*
X-1935Y419053D01*
X3935Y417699D02*
X4043Y417660D01*
X4150Y417617D01*
X4255Y417571D01*
X4359Y417520D01*
X4461Y417467D01*
X4561Y417410D01*
X4659Y417349D01*
X4754Y417285D01*
X4848Y417218D01*
X4939Y417147D01*
X5028Y417074D01*
X5114Y416997D01*
X5197Y416918D01*
X5278Y416836D01*
X5356Y416751D01*
X5430Y416663D01*
X5502Y416573D01*
X5571Y416480D01*
X5636Y416386D01*
X5698Y416289D01*
X5756Y416189D01*
X5812Y416088D01*
X5863Y415985D01*
X5911Y415881D01*
X5956Y415775D01*
X5997Y415667D01*
X6034Y415558D01*
X6067Y415448D01*
X6096Y415336D01*
X6122Y415224D01*
X6144Y415111D01*
X6161Y414997D01*
X6175Y414883D01*
X6185Y414768D01*
X6191Y414653D01*
X6193Y414538D01*
X2581Y410926D02*
X-6451Y418151D01*
X5290Y425028D02*
X6193Y425028D01*
X5290Y425028D02*
X5290Y425931D01*
X6193Y425931D01*
X6193Y425028D01*
X-1935Y431906D02*
X-2255Y431910D01*
X-2574Y431921D01*
X-2894Y431940D01*
X-3212Y431967D01*
X-3530Y432001D01*
X-3847Y432043D01*
X-4163Y432093D01*
X-4478Y432150D01*
X-4791Y432214D01*
X-5103Y432286D01*
X-5413Y432365D01*
X-5720Y432452D01*
X-6026Y432546D01*
X-6329Y432647D01*
X-6630Y432756D01*
X-6928Y432871D01*
X-7224Y432994D01*
X-7516Y433124D01*
X-7805Y433261D01*
X-7806Y433261D02*
X-7914Y433300D01*
X-8021Y433343D01*
X-8126Y433389D01*
X-8230Y433440D01*
X-8332Y433493D01*
X-8432Y433550D01*
X-8530Y433611D01*
X-8625Y433675D01*
X-8719Y433742D01*
X-8810Y433813D01*
X-8899Y433886D01*
X-8985Y433963D01*
X-9068Y434042D01*
X-9149Y434124D01*
X-9227Y434209D01*
X-9301Y434297D01*
X-9373Y434387D01*
X-9441Y434479D01*
X-9507Y434574D01*
X-9569Y434671D01*
X-9627Y434770D01*
X-9683Y434872D01*
X-9734Y434974D01*
X-9782Y435079D01*
X-9827Y435185D01*
X-9868Y435293D01*
X-9905Y435402D01*
X-9938Y435512D01*
X-9967Y435624D01*
X-9993Y435736D01*
X-10015Y435849D01*
X-10032Y435963D01*
X-10046Y436077D01*
X-10056Y436192D01*
X-10062Y436307D01*
X-10064Y436422D01*
X-10063Y436422D02*
X-10061Y436537D01*
X-10055Y436652D01*
X-10045Y436767D01*
X-10031Y436881D01*
X-10014Y436995D01*
X-9992Y437108D01*
X-9966Y437220D01*
X-9937Y437332D01*
X-9904Y437442D01*
X-9867Y437551D01*
X-9826Y437659D01*
X-9781Y437765D01*
X-9733Y437870D01*
X-9682Y437972D01*
X-9626Y438073D01*
X-9568Y438173D01*
X-9506Y438270D01*
X-9441Y438364D01*
X-9372Y438457D01*
X-9300Y438547D01*
X-9226Y438635D01*
X-9148Y438720D01*
X-9067Y438802D01*
X-8984Y438881D01*
X-8898Y438958D01*
X-8809Y439031D01*
X-8718Y439102D01*
X-8624Y439169D01*
X-8529Y439233D01*
X-8431Y439294D01*
X-8331Y439351D01*
X-8229Y439404D01*
X-8125Y439455D01*
X-8020Y439501D01*
X-7913Y439544D01*
X-7805Y439583D01*
X-7805Y439582D02*
X-7516Y439719D01*
X-7224Y439849D01*
X-6928Y439972D01*
X-6630Y440087D01*
X-6329Y440196D01*
X-6026Y440297D01*
X-5720Y440391D01*
X-5413Y440478D01*
X-5103Y440557D01*
X-4791Y440629D01*
X-4478Y440693D01*
X-4163Y440750D01*
X-3847Y440800D01*
X-3530Y440842D01*
X-3212Y440876D01*
X-2894Y440903D01*
X-2574Y440922D01*
X-2255Y440933D01*
X-1935Y440937D01*
X-1935Y431907D02*
X-1615Y431911D01*
X-1296Y431922D01*
X-976Y431941D01*
X-658Y431968D01*
X-340Y432002D01*
X-23Y432044D01*
X293Y432094D01*
X608Y432151D01*
X921Y432215D01*
X1233Y432287D01*
X1543Y432366D01*
X1850Y432453D01*
X2156Y432547D01*
X2459Y432648D01*
X2760Y432757D01*
X3058Y432872D01*
X3354Y432995D01*
X3646Y433125D01*
X3935Y433262D01*
X3936Y433261D02*
X4044Y433300D01*
X4151Y433343D01*
X4256Y433389D01*
X4360Y433440D01*
X4462Y433493D01*
X4562Y433550D01*
X4660Y433611D01*
X4755Y433675D01*
X4849Y433742D01*
X4940Y433813D01*
X5029Y433886D01*
X5115Y433963D01*
X5198Y434042D01*
X5279Y434124D01*
X5357Y434209D01*
X5431Y434297D01*
X5503Y434387D01*
X5572Y434480D01*
X5637Y434574D01*
X5699Y434671D01*
X5757Y434771D01*
X5813Y434872D01*
X5864Y434974D01*
X5912Y435079D01*
X5957Y435185D01*
X5998Y435293D01*
X6035Y435402D01*
X6068Y435512D01*
X6097Y435624D01*
X6123Y435736D01*
X6145Y435849D01*
X6162Y435963D01*
X6176Y436077D01*
X6186Y436192D01*
X6192Y436307D01*
X6194Y436422D01*
X3935Y439582D02*
X3646Y439719D01*
X3354Y439849D01*
X3058Y439972D01*
X2760Y440087D01*
X2459Y440196D01*
X2156Y440297D01*
X1850Y440391D01*
X1543Y440478D01*
X1233Y440557D01*
X921Y440629D01*
X608Y440693D01*
X293Y440750D01*
X-23Y440800D01*
X-340Y440842D01*
X-658Y440876D01*
X-976Y440903D01*
X-1296Y440922D01*
X-1615Y440933D01*
X-1935Y440937D01*
X3935Y439583D02*
X4043Y439544D01*
X4150Y439501D01*
X4255Y439455D01*
X4359Y439404D01*
X4461Y439351D01*
X4561Y439294D01*
X4659Y439233D01*
X4754Y439169D01*
X4848Y439102D01*
X4939Y439031D01*
X5028Y438958D01*
X5114Y438881D01*
X5197Y438802D01*
X5278Y438720D01*
X5356Y438635D01*
X5430Y438547D01*
X5502Y438457D01*
X5571Y438364D01*
X5636Y438270D01*
X5698Y438173D01*
X5756Y438073D01*
X5812Y437972D01*
X5863Y437869D01*
X5911Y437765D01*
X5956Y437659D01*
X5997Y437551D01*
X6034Y437442D01*
X6067Y437332D01*
X6096Y437220D01*
X6122Y437108D01*
X6144Y436995D01*
X6161Y436881D01*
X6175Y436767D01*
X6185Y436652D01*
X6191Y436537D01*
X6193Y436422D01*
X2581Y432809D02*
X-6451Y440034D01*
X-6451Y447537D02*
X-10063Y452053D01*
X6193Y452053D01*
X6193Y447537D02*
X6193Y456569D01*
D10*
X38100Y857250D02*
X38100Y895800D01*
X647700Y895800D02*
X647700Y857250D01*
X647050Y876300D02*
X38750Y876300D01*
X64100Y879492D01*
X64100Y873108D01*
X38750Y876300D01*
X64100Y877600D01*
X64100Y875000D02*
X38750Y876300D01*
X64100Y878900D01*
X64100Y873700D02*
X38750Y876300D01*
X621700Y879492D02*
X647050Y876300D01*
X621700Y879492D02*
X621700Y873108D01*
X647050Y876300D01*
X621700Y877600D01*
X621700Y875000D02*
X647050Y876300D01*
X621700Y878900D01*
X621700Y873700D02*
X647050Y876300D01*
D11*
X317260Y891838D02*
X311841Y891838D01*
X317260Y891838D02*
X317378Y891836D01*
X317496Y891830D01*
X317614Y891821D01*
X317731Y891807D01*
X317848Y891790D01*
X317965Y891769D01*
X318080Y891744D01*
X318195Y891715D01*
X318309Y891682D01*
X318421Y891646D01*
X318532Y891606D01*
X318642Y891563D01*
X318751Y891516D01*
X318858Y891466D01*
X318963Y891411D01*
X319066Y891354D01*
X319167Y891293D01*
X319267Y891229D01*
X319364Y891162D01*
X319459Y891092D01*
X319551Y891018D01*
X319642Y890942D01*
X319729Y890862D01*
X319814Y890780D01*
X319896Y890695D01*
X319976Y890608D01*
X320052Y890517D01*
X320126Y890425D01*
X320196Y890330D01*
X320263Y890233D01*
X320327Y890133D01*
X320388Y890032D01*
X320445Y889929D01*
X320500Y889824D01*
X320550Y889717D01*
X320597Y889608D01*
X320640Y889498D01*
X320680Y889387D01*
X320716Y889275D01*
X320749Y889161D01*
X320778Y889046D01*
X320803Y888931D01*
X320824Y888814D01*
X320841Y888697D01*
X320855Y888580D01*
X320864Y888462D01*
X320870Y888344D01*
X320872Y888226D01*
X320872Y887323D01*
X320873Y887323D02*
X320871Y887190D01*
X320865Y887058D01*
X320855Y886926D01*
X320842Y886794D01*
X320824Y886662D01*
X320803Y886532D01*
X320778Y886401D01*
X320749Y886272D01*
X320716Y886144D01*
X320680Y886016D01*
X320640Y885890D01*
X320596Y885765D01*
X320548Y885641D01*
X320497Y885519D01*
X320442Y885398D01*
X320384Y885279D01*
X320322Y885161D01*
X320257Y885046D01*
X320188Y884932D01*
X320117Y884821D01*
X320041Y884712D01*
X319963Y884605D01*
X319882Y884500D01*
X319797Y884398D01*
X319710Y884298D01*
X319620Y884201D01*
X319527Y884106D01*
X319431Y884015D01*
X319333Y883926D01*
X319232Y883840D01*
X319128Y883757D01*
X319022Y883677D01*
X318914Y883601D01*
X318804Y883527D01*
X318691Y883457D01*
X318577Y883390D01*
X318460Y883327D01*
X318342Y883267D01*
X318222Y883210D01*
X318100Y883157D01*
X317977Y883108D01*
X317853Y883062D01*
X317727Y883020D01*
X317600Y882982D01*
X317472Y882947D01*
X317343Y882916D01*
X317214Y882889D01*
X317083Y882866D01*
X316952Y882846D01*
X316820Y882831D01*
X316688Y882819D01*
X316556Y882811D01*
X316423Y882807D01*
X316291Y882807D01*
X316158Y882811D01*
X316026Y882819D01*
X315894Y882831D01*
X315762Y882846D01*
X315631Y882866D01*
X315500Y882889D01*
X315371Y882916D01*
X315242Y882947D01*
X315114Y882982D01*
X314987Y883020D01*
X314861Y883062D01*
X314737Y883108D01*
X314614Y883157D01*
X314492Y883210D01*
X314372Y883267D01*
X314254Y883327D01*
X314137Y883390D01*
X314023Y883457D01*
X313910Y883527D01*
X313800Y883601D01*
X313692Y883677D01*
X313586Y883757D01*
X313482Y883840D01*
X313381Y883926D01*
X313283Y884015D01*
X313187Y884106D01*
X313094Y884201D01*
X313004Y884298D01*
X312917Y884398D01*
X312832Y884500D01*
X312751Y884605D01*
X312673Y884712D01*
X312597Y884821D01*
X312526Y884932D01*
X312457Y885046D01*
X312392Y885161D01*
X312330Y885279D01*
X312272Y885398D01*
X312217Y885519D01*
X312166Y885641D01*
X312118Y885765D01*
X312074Y885890D01*
X312034Y886016D01*
X311998Y886144D01*
X311965Y886272D01*
X311936Y886401D01*
X311911Y886532D01*
X311890Y886662D01*
X311872Y886794D01*
X311859Y886926D01*
X311849Y887058D01*
X311843Y887190D01*
X311841Y887323D01*
X311841Y891838D01*
X311843Y892015D01*
X311850Y892193D01*
X311861Y892370D01*
X311876Y892546D01*
X311895Y892722D01*
X311919Y892898D01*
X311947Y893073D01*
X311980Y893248D01*
X312017Y893421D01*
X312058Y893594D01*
X312103Y893765D01*
X312152Y893935D01*
X312206Y894104D01*
X312263Y894272D01*
X312325Y894438D01*
X312391Y894603D01*
X312461Y894766D01*
X312535Y894927D01*
X312612Y895086D01*
X312694Y895244D01*
X312780Y895399D01*
X312869Y895552D01*
X312962Y895703D01*
X313059Y895852D01*
X313159Y895998D01*
X313263Y896142D01*
X313370Y896283D01*
X313481Y896421D01*
X313595Y896557D01*
X313713Y896690D01*
X313833Y896820D01*
X313957Y896947D01*
X314084Y897071D01*
X314214Y897191D01*
X314347Y897309D01*
X314482Y897423D01*
X314621Y897534D01*
X314762Y897641D01*
X314906Y897745D01*
X315052Y897845D01*
X315201Y897942D01*
X315352Y898035D01*
X315505Y898124D01*
X315660Y898210D01*
X315818Y898292D01*
X315977Y898369D01*
X316138Y898443D01*
X316301Y898513D01*
X316466Y898579D01*
X316632Y898641D01*
X316800Y898698D01*
X316969Y898752D01*
X317139Y898801D01*
X317310Y898846D01*
X317483Y898887D01*
X317656Y898924D01*
X317831Y898957D01*
X318006Y898985D01*
X318182Y899009D01*
X318358Y899028D01*
X318534Y899043D01*
X318711Y899054D01*
X318889Y899061D01*
X319066Y899063D01*
X328828Y896805D02*
X328691Y896516D01*
X328561Y896224D01*
X328438Y895928D01*
X328323Y895630D01*
X328214Y895329D01*
X328113Y895026D01*
X328019Y894720D01*
X327932Y894413D01*
X327853Y894103D01*
X327781Y893791D01*
X327717Y893478D01*
X327660Y893163D01*
X327610Y892847D01*
X327568Y892530D01*
X327534Y892212D01*
X327507Y891894D01*
X327488Y891574D01*
X327477Y891255D01*
X327473Y890935D01*
X328827Y896806D02*
X328866Y896914D01*
X328909Y897021D01*
X328955Y897126D01*
X329006Y897230D01*
X329059Y897332D01*
X329116Y897432D01*
X329177Y897530D01*
X329241Y897625D01*
X329308Y897719D01*
X329379Y897810D01*
X329452Y897899D01*
X329529Y897985D01*
X329608Y898068D01*
X329690Y898149D01*
X329775Y898227D01*
X329863Y898301D01*
X329953Y898373D01*
X330045Y898441D01*
X330140Y898507D01*
X330237Y898569D01*
X330336Y898627D01*
X330438Y898683D01*
X330540Y898734D01*
X330645Y898782D01*
X330751Y898827D01*
X330859Y898868D01*
X330968Y898905D01*
X331078Y898938D01*
X331190Y898967D01*
X331302Y898993D01*
X331415Y899015D01*
X331529Y899032D01*
X331643Y899046D01*
X331758Y899056D01*
X331873Y899062D01*
X331988Y899064D01*
X331988Y899063D02*
X332103Y899061D01*
X332218Y899055D01*
X332333Y899045D01*
X332447Y899031D01*
X332561Y899014D01*
X332674Y898992D01*
X332786Y898966D01*
X332898Y898937D01*
X333008Y898904D01*
X333117Y898867D01*
X333225Y898826D01*
X333331Y898781D01*
X333436Y898733D01*
X333538Y898682D01*
X333639Y898626D01*
X333739Y898568D01*
X333836Y898506D01*
X333930Y898441D01*
X334023Y898372D01*
X334113Y898300D01*
X334201Y898226D01*
X334286Y898148D01*
X334368Y898067D01*
X334447Y897984D01*
X334524Y897898D01*
X334597Y897809D01*
X334668Y897718D01*
X334735Y897624D01*
X334799Y897529D01*
X334860Y897431D01*
X334917Y897331D01*
X334970Y897229D01*
X335021Y897125D01*
X335067Y897020D01*
X335110Y896913D01*
X335149Y896805D01*
X335148Y896805D02*
X335285Y896516D01*
X335415Y896224D01*
X335538Y895928D01*
X335653Y895630D01*
X335762Y895329D01*
X335863Y895026D01*
X335957Y894720D01*
X336044Y894413D01*
X336123Y894103D01*
X336195Y893791D01*
X336259Y893478D01*
X336316Y893163D01*
X336366Y892847D01*
X336408Y892530D01*
X336442Y892212D01*
X336469Y891894D01*
X336488Y891574D01*
X336499Y891255D01*
X336503Y890935D01*
X327473Y890935D02*
X327477Y890615D01*
X327488Y890296D01*
X327507Y889976D01*
X327534Y889658D01*
X327568Y889340D01*
X327610Y889023D01*
X327660Y888707D01*
X327717Y888392D01*
X327781Y888079D01*
X327853Y887767D01*
X327932Y887457D01*
X328019Y887150D01*
X328113Y886844D01*
X328214Y886541D01*
X328323Y886240D01*
X328438Y885942D01*
X328561Y885646D01*
X328691Y885354D01*
X328828Y885065D01*
X328827Y885065D02*
X328866Y884957D01*
X328909Y884850D01*
X328955Y884745D01*
X329006Y884641D01*
X329059Y884539D01*
X329116Y884439D01*
X329177Y884341D01*
X329241Y884246D01*
X329308Y884152D01*
X329379Y884061D01*
X329452Y883972D01*
X329529Y883886D01*
X329608Y883803D01*
X329690Y883722D01*
X329775Y883644D01*
X329863Y883570D01*
X329953Y883498D01*
X330046Y883429D01*
X330140Y883364D01*
X330237Y883302D01*
X330337Y883244D01*
X330438Y883188D01*
X330540Y883137D01*
X330645Y883089D01*
X330751Y883044D01*
X330859Y883003D01*
X330968Y882966D01*
X331078Y882933D01*
X331190Y882904D01*
X331302Y882878D01*
X331415Y882856D01*
X331529Y882839D01*
X331643Y882825D01*
X331758Y882815D01*
X331873Y882809D01*
X331988Y882807D01*
X335148Y885065D02*
X335285Y885354D01*
X335415Y885646D01*
X335538Y885942D01*
X335653Y886240D01*
X335762Y886541D01*
X335863Y886844D01*
X335957Y887150D01*
X336044Y887457D01*
X336123Y887767D01*
X336195Y888079D01*
X336259Y888392D01*
X336316Y888707D01*
X336366Y889023D01*
X336408Y889340D01*
X336442Y889658D01*
X336469Y889976D01*
X336488Y890296D01*
X336499Y890615D01*
X336503Y890935D01*
X335149Y885065D02*
X335110Y884957D01*
X335067Y884850D01*
X335021Y884745D01*
X334970Y884641D01*
X334917Y884539D01*
X334860Y884439D01*
X334799Y884341D01*
X334735Y884246D01*
X334668Y884152D01*
X334597Y884061D01*
X334524Y883972D01*
X334447Y883886D01*
X334368Y883803D01*
X334286Y883722D01*
X334201Y883644D01*
X334113Y883570D01*
X334023Y883498D01*
X333930Y883429D01*
X333836Y883364D01*
X333739Y883302D01*
X333639Y883244D01*
X333538Y883188D01*
X333435Y883137D01*
X333331Y883089D01*
X333225Y883044D01*
X333117Y883003D01*
X333008Y882966D01*
X332898Y882933D01*
X332786Y882904D01*
X332674Y882878D01*
X332561Y882856D01*
X332447Y882839D01*
X332333Y882825D01*
X332218Y882815D01*
X332103Y882809D01*
X331988Y882807D01*
X328376Y886419D02*
X335601Y895451D01*
X342478Y883710D02*
X342478Y882807D01*
X342478Y883710D02*
X343381Y883710D01*
X343381Y882807D01*
X342478Y882807D01*
X352969Y890032D02*
X358387Y890032D01*
X352969Y890032D02*
X352851Y890034D01*
X352733Y890040D01*
X352615Y890049D01*
X352498Y890063D01*
X352381Y890080D01*
X352264Y890101D01*
X352149Y890126D01*
X352034Y890155D01*
X351920Y890188D01*
X351808Y890224D01*
X351697Y890264D01*
X351587Y890307D01*
X351478Y890354D01*
X351371Y890404D01*
X351266Y890459D01*
X351163Y890516D01*
X351062Y890577D01*
X350962Y890641D01*
X350865Y890708D01*
X350770Y890778D01*
X350678Y890852D01*
X350587Y890928D01*
X350500Y891008D01*
X350415Y891090D01*
X350333Y891175D01*
X350253Y891262D01*
X350177Y891353D01*
X350103Y891445D01*
X350033Y891540D01*
X349966Y891637D01*
X349902Y891737D01*
X349841Y891838D01*
X349784Y891941D01*
X349729Y892046D01*
X349679Y892153D01*
X349632Y892262D01*
X349589Y892372D01*
X349549Y892483D01*
X349513Y892595D01*
X349480Y892709D01*
X349451Y892824D01*
X349426Y892939D01*
X349405Y893056D01*
X349388Y893173D01*
X349374Y893290D01*
X349365Y893408D01*
X349359Y893526D01*
X349357Y893644D01*
X349356Y893644D02*
X349356Y894547D01*
X349358Y894680D01*
X349364Y894812D01*
X349374Y894944D01*
X349387Y895076D01*
X349405Y895208D01*
X349426Y895338D01*
X349451Y895469D01*
X349480Y895598D01*
X349513Y895726D01*
X349549Y895854D01*
X349589Y895980D01*
X349633Y896105D01*
X349681Y896229D01*
X349732Y896351D01*
X349787Y896472D01*
X349845Y896591D01*
X349907Y896709D01*
X349972Y896824D01*
X350041Y896938D01*
X350112Y897049D01*
X350188Y897158D01*
X350266Y897265D01*
X350347Y897370D01*
X350432Y897472D01*
X350519Y897572D01*
X350609Y897669D01*
X350702Y897764D01*
X350798Y897855D01*
X350896Y897944D01*
X350997Y898030D01*
X351101Y898113D01*
X351207Y898193D01*
X351315Y898269D01*
X351425Y898343D01*
X351538Y898413D01*
X351652Y898480D01*
X351769Y898543D01*
X351887Y898603D01*
X352007Y898660D01*
X352129Y898713D01*
X352252Y898762D01*
X352376Y898808D01*
X352502Y898850D01*
X352629Y898888D01*
X352757Y898923D01*
X352886Y898954D01*
X353015Y898981D01*
X353146Y899004D01*
X353277Y899024D01*
X353409Y899039D01*
X353541Y899051D01*
X353673Y899059D01*
X353806Y899063D01*
X353938Y899063D01*
X354071Y899059D01*
X354203Y899051D01*
X354335Y899039D01*
X354467Y899024D01*
X354598Y899004D01*
X354729Y898981D01*
X354858Y898954D01*
X354987Y898923D01*
X355115Y898888D01*
X355242Y898850D01*
X355368Y898808D01*
X355492Y898762D01*
X355615Y898713D01*
X355737Y898660D01*
X355857Y898603D01*
X355975Y898543D01*
X356092Y898480D01*
X356206Y898413D01*
X356319Y898343D01*
X356429Y898269D01*
X356537Y898193D01*
X356643Y898113D01*
X356747Y898030D01*
X356848Y897944D01*
X356946Y897855D01*
X357042Y897764D01*
X357135Y897669D01*
X357225Y897572D01*
X357312Y897472D01*
X357397Y897370D01*
X357478Y897265D01*
X357556Y897158D01*
X357632Y897049D01*
X357703Y896938D01*
X357772Y896824D01*
X357837Y896709D01*
X357899Y896591D01*
X357957Y896472D01*
X358012Y896351D01*
X358063Y896229D01*
X358111Y896105D01*
X358155Y895980D01*
X358195Y895854D01*
X358231Y895726D01*
X358264Y895598D01*
X358293Y895469D01*
X358318Y895338D01*
X358339Y895208D01*
X358357Y895076D01*
X358370Y894944D01*
X358380Y894812D01*
X358386Y894680D01*
X358388Y894547D01*
X358387Y894547D02*
X358387Y890032D01*
X358385Y889857D01*
X358379Y889683D01*
X358368Y889509D01*
X358353Y889335D01*
X358334Y889161D01*
X358311Y888988D01*
X358284Y888816D01*
X358252Y888644D01*
X358217Y888473D01*
X358177Y888303D01*
X358133Y888134D01*
X358085Y887966D01*
X358033Y887799D01*
X357977Y887634D01*
X357917Y887470D01*
X357854Y887307D01*
X357786Y887147D01*
X357714Y886987D01*
X357639Y886830D01*
X357559Y886674D01*
X357476Y886521D01*
X357390Y886369D01*
X357299Y886220D01*
X357205Y886073D01*
X357108Y885928D01*
X357007Y885785D01*
X356903Y885645D01*
X356795Y885508D01*
X356684Y885373D01*
X356570Y885241D01*
X356453Y885112D01*
X356332Y884985D01*
X356209Y884862D01*
X356082Y884741D01*
X355953Y884624D01*
X355821Y884510D01*
X355686Y884399D01*
X355549Y884291D01*
X355409Y884187D01*
X355266Y884086D01*
X355121Y883989D01*
X354974Y883895D01*
X354825Y883804D01*
X354673Y883718D01*
X354520Y883635D01*
X354364Y883555D01*
X354207Y883480D01*
X354047Y883408D01*
X353887Y883340D01*
X353724Y883277D01*
X353560Y883217D01*
X353395Y883161D01*
X353228Y883109D01*
X353060Y883061D01*
X352891Y883017D01*
X352721Y882977D01*
X352550Y882942D01*
X352378Y882910D01*
X352206Y882883D01*
X352033Y882860D01*
X351859Y882841D01*
X351685Y882826D01*
X351511Y882815D01*
X351337Y882809D01*
X351162Y882807D01*
X364987Y891838D02*
X370406Y891838D01*
X370524Y891836D01*
X370642Y891830D01*
X370760Y891821D01*
X370877Y891807D01*
X370994Y891790D01*
X371111Y891769D01*
X371226Y891744D01*
X371341Y891715D01*
X371455Y891682D01*
X371567Y891646D01*
X371678Y891606D01*
X371788Y891563D01*
X371897Y891516D01*
X372004Y891466D01*
X372109Y891411D01*
X372212Y891354D01*
X372313Y891293D01*
X372413Y891229D01*
X372510Y891162D01*
X372605Y891092D01*
X372697Y891018D01*
X372788Y890942D01*
X372875Y890862D01*
X372960Y890780D01*
X373042Y890695D01*
X373122Y890608D01*
X373198Y890517D01*
X373272Y890425D01*
X373342Y890330D01*
X373409Y890233D01*
X373473Y890133D01*
X373534Y890032D01*
X373591Y889929D01*
X373646Y889824D01*
X373696Y889717D01*
X373743Y889608D01*
X373786Y889498D01*
X373826Y889387D01*
X373862Y889275D01*
X373895Y889161D01*
X373924Y889046D01*
X373949Y888931D01*
X373970Y888814D01*
X373987Y888697D01*
X374001Y888580D01*
X374010Y888462D01*
X374016Y888344D01*
X374018Y888226D01*
X374019Y888226D02*
X374019Y887323D01*
X374017Y887190D01*
X374011Y887058D01*
X374001Y886926D01*
X373988Y886794D01*
X373970Y886662D01*
X373949Y886532D01*
X373924Y886401D01*
X373895Y886272D01*
X373862Y886144D01*
X373826Y886016D01*
X373786Y885890D01*
X373742Y885765D01*
X373694Y885641D01*
X373643Y885519D01*
X373588Y885398D01*
X373530Y885279D01*
X373468Y885161D01*
X373403Y885046D01*
X373334Y884932D01*
X373263Y884821D01*
X373187Y884712D01*
X373109Y884605D01*
X373028Y884500D01*
X372943Y884398D01*
X372856Y884298D01*
X372766Y884201D01*
X372673Y884106D01*
X372577Y884015D01*
X372479Y883926D01*
X372378Y883840D01*
X372274Y883757D01*
X372168Y883677D01*
X372060Y883601D01*
X371950Y883527D01*
X371837Y883457D01*
X371723Y883390D01*
X371606Y883327D01*
X371488Y883267D01*
X371368Y883210D01*
X371246Y883157D01*
X371123Y883108D01*
X370999Y883062D01*
X370873Y883020D01*
X370746Y882982D01*
X370618Y882947D01*
X370489Y882916D01*
X370360Y882889D01*
X370229Y882866D01*
X370098Y882846D01*
X369966Y882831D01*
X369834Y882819D01*
X369702Y882811D01*
X369569Y882807D01*
X369437Y882807D01*
X369304Y882811D01*
X369172Y882819D01*
X369040Y882831D01*
X368908Y882846D01*
X368777Y882866D01*
X368646Y882889D01*
X368517Y882916D01*
X368388Y882947D01*
X368260Y882982D01*
X368133Y883020D01*
X368007Y883062D01*
X367883Y883108D01*
X367760Y883157D01*
X367638Y883210D01*
X367518Y883267D01*
X367400Y883327D01*
X367283Y883390D01*
X367169Y883457D01*
X367056Y883527D01*
X366946Y883601D01*
X366838Y883677D01*
X366732Y883757D01*
X366628Y883840D01*
X366527Y883926D01*
X366429Y884015D01*
X366333Y884106D01*
X366240Y884201D01*
X366150Y884298D01*
X366063Y884398D01*
X365978Y884500D01*
X365897Y884605D01*
X365819Y884712D01*
X365743Y884821D01*
X365672Y884932D01*
X365603Y885046D01*
X365538Y885161D01*
X365476Y885279D01*
X365418Y885398D01*
X365363Y885519D01*
X365312Y885641D01*
X365264Y885765D01*
X365220Y885890D01*
X365180Y886016D01*
X365144Y886144D01*
X365111Y886272D01*
X365082Y886401D01*
X365057Y886532D01*
X365036Y886662D01*
X365018Y886794D01*
X365005Y886926D01*
X364995Y887058D01*
X364989Y887190D01*
X364987Y887323D01*
X364987Y891838D01*
X364989Y892015D01*
X364996Y892193D01*
X365007Y892370D01*
X365022Y892546D01*
X365041Y892722D01*
X365065Y892898D01*
X365093Y893073D01*
X365126Y893248D01*
X365163Y893421D01*
X365204Y893594D01*
X365249Y893765D01*
X365298Y893935D01*
X365352Y894104D01*
X365409Y894272D01*
X365471Y894438D01*
X365537Y894603D01*
X365607Y894766D01*
X365681Y894927D01*
X365758Y895086D01*
X365840Y895244D01*
X365926Y895399D01*
X366015Y895552D01*
X366108Y895703D01*
X366205Y895852D01*
X366305Y895998D01*
X366409Y896142D01*
X366516Y896283D01*
X366627Y896421D01*
X366741Y896557D01*
X366859Y896690D01*
X366979Y896820D01*
X367103Y896947D01*
X367230Y897071D01*
X367360Y897191D01*
X367493Y897309D01*
X367628Y897423D01*
X367767Y897534D01*
X367908Y897641D01*
X368052Y897745D01*
X368198Y897845D01*
X368347Y897942D01*
X368498Y898035D01*
X368651Y898124D01*
X368806Y898210D01*
X368964Y898292D01*
X369123Y898369D01*
X369284Y898443D01*
X369447Y898513D01*
X369612Y898579D01*
X369778Y898641D01*
X369946Y898698D01*
X370115Y898752D01*
X370285Y898801D01*
X370456Y898846D01*
X370629Y898887D01*
X370802Y898924D01*
X370977Y898957D01*
X371152Y898985D01*
X371328Y899009D01*
X371504Y899028D01*
X371680Y899043D01*
X371857Y899054D01*
X372035Y899061D01*
X372212Y899063D01*
D12*
X589915Y744220D02*
X589915Y728980D01*
X564515Y728980D02*
X564515Y744220D01*
X539115Y744220D02*
X539115Y728980D01*
X513715Y728980D02*
X513715Y744220D01*
X488315Y744220D02*
X488315Y728980D01*
X177336Y727683D02*
X176964Y742919D01*
X151571Y742298D02*
X151944Y727063D01*
X126551Y726442D02*
X126179Y741678D01*
X100786Y741057D02*
X101159Y725822D01*
X75766Y725201D02*
X75394Y740437D01*
X438785Y579120D02*
X454025Y579120D01*
X454025Y553720D02*
X438785Y553720D01*
X438785Y528320D02*
X454025Y528320D01*
X454025Y502920D02*
X438785Y502920D01*
X438785Y477520D02*
X454025Y477520D01*
X446405Y261620D02*
X431165Y261620D01*
X431165Y236220D02*
X446405Y236220D01*
X446405Y210820D02*
X431165Y210820D01*
X431165Y185420D02*
X446405Y185420D01*
X446405Y160020D02*
X431165Y160020D01*
D13*
X306070Y594360D03*
X331470Y594360D03*
X306070Y568960D03*
X331470Y568960D03*
X306070Y543560D03*
X331470Y543560D03*
X306070Y518160D03*
X331470Y518160D03*
X306070Y492760D03*
X331470Y492760D03*
X306070Y467360D03*
X331470Y467360D03*
X306070Y441960D03*
X331470Y441960D03*
X306070Y416560D03*
X331470Y416560D03*
X306070Y391160D03*
X331470Y391160D03*
X306070Y365760D03*
X331470Y365760D03*
X306070Y340360D03*
X331470Y340360D03*
X306070Y314960D03*
X331470Y314960D03*
X306070Y289560D03*
X331470Y289560D03*
X306070Y264160D03*
X331470Y264160D03*
X306070Y238760D03*
X331470Y238760D03*
X306070Y213360D03*
X331470Y213360D03*
X306070Y187960D03*
X331470Y187960D03*
X306070Y162560D03*
X331470Y162560D03*
X306070Y137160D03*
X331470Y137160D03*
X306070Y111760D03*
X331470Y111760D03*
D14*
X247904Y378460D02*
X234696Y378460D01*
X234696Y403860D02*
X247904Y403860D01*
X247904Y480060D02*
X234696Y480060D01*
X234696Y505460D02*
X247904Y505460D01*
X247904Y429260D02*
X234696Y429260D01*
X234696Y454660D02*
X247904Y454660D01*
X247904Y530860D02*
X234696Y530860D01*
X234696Y556260D02*
X247904Y556260D01*
X171704Y556260D02*
X158496Y556260D01*
X158496Y530860D02*
X171704Y530860D01*
X171704Y505460D02*
X158496Y505460D01*
X158496Y480060D02*
X171704Y480060D01*
X171704Y454660D02*
X158496Y454660D01*
X158496Y429260D02*
X171704Y429260D01*
X171704Y403860D02*
X158496Y403860D01*
X158496Y378460D02*
X171704Y378460D01*
X234696Y123190D02*
X247904Y123190D01*
X247904Y148590D02*
X234696Y148590D01*
X234696Y224790D02*
X247904Y224790D01*
X247904Y250190D02*
X234696Y250190D01*
X234696Y173990D02*
X247904Y173990D01*
X247904Y199390D02*
X234696Y199390D01*
X234696Y275590D02*
X247904Y275590D01*
X247904Y300990D02*
X234696Y300990D01*
X171704Y300990D02*
X158496Y300990D01*
X158496Y275590D02*
X171704Y275590D01*
X171704Y250190D02*
X158496Y250190D01*
X158496Y224790D02*
X171704Y224790D01*
X171704Y199390D02*
X158496Y199390D01*
X158496Y173990D02*
X171704Y173990D01*
X171704Y148590D02*
X158496Y148590D01*
X158496Y123190D02*
X171704Y123190D01*
X569976Y131233D02*
X583184Y131233D01*
X583184Y156633D02*
X569976Y156633D01*
X569976Y232833D02*
X583184Y232833D01*
X583184Y258233D02*
X569976Y258233D01*
X569976Y182033D02*
X583184Y182033D01*
X583184Y207433D02*
X569976Y207433D01*
X569976Y283633D02*
X583184Y283633D01*
X583184Y309033D02*
X569976Y309033D01*
X506984Y309033D02*
X493776Y309033D01*
X493776Y283633D02*
X506984Y283633D01*
X506984Y258233D02*
X493776Y258233D01*
X493776Y232833D02*
X506984Y232833D01*
X506984Y207433D02*
X493776Y207433D01*
X493776Y182033D02*
X506984Y182033D01*
X506984Y156633D02*
X493776Y156633D01*
X493776Y131233D02*
X506984Y131233D01*
X569976Y450850D02*
X583184Y450850D01*
X583184Y476250D02*
X569976Y476250D01*
X569976Y552450D02*
X583184Y552450D01*
X583184Y577850D02*
X569976Y577850D01*
X569976Y501650D02*
X583184Y501650D01*
X583184Y527050D02*
X569976Y527050D01*
X569976Y603250D02*
X583184Y603250D01*
X583184Y628650D02*
X569976Y628650D01*
X506984Y628650D02*
X493776Y628650D01*
X493776Y603250D02*
X506984Y603250D01*
X506984Y577850D02*
X493776Y577850D01*
X493776Y552450D02*
X506984Y552450D01*
X506984Y527050D02*
X493776Y527050D01*
X493776Y501650D02*
X506984Y501650D01*
X506984Y476250D02*
X493776Y476250D01*
X493776Y450850D02*
X506984Y450850D01*
D15*
X170180Y603250D03*
X198120Y603250D03*
X189230Y337820D03*
X217170Y337820D03*
X552450Y342900D03*
X524510Y342900D03*
X546100Y662517D03*
X518160Y662517D03*
D16*
X349250Y723900D03*
X431800Y723900D03*
X390525Y676275D03*
X266700Y676275D03*
X307975Y676275D03*
X307975Y723900D03*
D17*
X431800Y676275D03*
D16*
X349250Y676275D03*
X390525Y723900D03*
X266700Y723900D03*
D18*
X438785Y160020D02*
X455930Y160020D01*
X484717Y131233D02*
X500380Y131233D01*
X484717Y131233D02*
X455930Y160020D01*
X527050Y450850D02*
X576580Y450850D01*
X527050Y450850D02*
X467360Y391160D01*
X331470Y391160D01*
X596825Y388620D02*
X627380Y419175D01*
X627380Y579120D02*
X603250Y603250D01*
X627380Y579120D02*
X627380Y419175D01*
X596825Y388620D02*
X530823Y388620D01*
X431763Y289560D02*
X331470Y289560D01*
X431763Y289560D02*
X530823Y388620D01*
X576580Y603250D02*
X603250Y603250D01*
X222250Y571500D02*
X222250Y419100D01*
X181610Y378460D01*
X222250Y571500D02*
X245110Y594360D01*
X181610Y378460D02*
X165100Y378460D01*
X245110Y594360D02*
X245110Y740410D01*
X251143Y746443D01*
X478473Y746443D02*
X488315Y736600D01*
X478473Y746443D02*
X251143Y746443D01*
X75580Y732819D02*
X75580Y656619D01*
X57150Y638189D01*
X111760Y123190D02*
X165100Y123190D01*
X57150Y177800D02*
X57150Y638189D01*
X57150Y177800D02*
X111760Y123190D01*
X331470Y111760D02*
X351790Y111760D01*
X400050Y63500D02*
X596900Y63500D01*
X635000Y101600D01*
X400050Y63500D02*
X351790Y111760D01*
X576580Y283633D02*
X605367Y283633D01*
X635000Y254000D02*
X635000Y101600D01*
X635000Y254000D02*
X605367Y283633D01*
X445770Y236220D02*
X438785Y236220D01*
X493183Y283633D02*
X500380Y283633D01*
X493183Y283633D02*
X445770Y236220D01*
X358140Y137160D02*
X331470Y137160D01*
X416560Y78740D02*
X590550Y78740D01*
X416560Y78740D02*
X358140Y137160D01*
X590550Y78740D02*
X615950Y104140D01*
X615950Y209550D01*
X592667Y232833D01*
X576580Y232833D01*
X500380Y232833D02*
X474133Y232833D01*
X452120Y210820D02*
X438785Y210820D01*
X452120Y210820D02*
X474133Y232833D01*
X364490Y162560D02*
X331470Y162560D01*
X364490Y162560D02*
X431800Y95250D01*
X585507Y95250D01*
X600710Y110453D01*
X600710Y170603D01*
X589280Y182033D01*
X576580Y182033D01*
X468630Y185420D02*
X438785Y185420D01*
X472017Y182033D02*
X500380Y182033D01*
X472017Y182033D02*
X468630Y185420D01*
X590513Y403860D02*
X612140Y425487D01*
X590513Y403860D02*
X524510Y403860D01*
X612140Y529590D02*
X589280Y552450D01*
X576580Y552450D01*
X612140Y529590D02*
X612140Y425487D01*
X524510Y403860D02*
X435610Y314960D01*
X331470Y314960D01*
X446405Y553720D02*
X464820Y553720D01*
X474980Y563880D02*
X474980Y589280D01*
X488950Y603250D01*
X500380Y603250D01*
X474980Y563880D02*
X464820Y553720D01*
X485775Y552450D02*
X500380Y552450D01*
X485775Y552450D02*
X461645Y528320D01*
X446405Y528320D01*
X446405Y502920D02*
X467360Y502920D01*
X469900Y500380D01*
X499110Y500380D01*
X500380Y501650D01*
X564515Y736600D02*
X564515Y762000D01*
X545465Y781050D01*
X214630Y682027D02*
X137650Y605047D01*
X137650Y543560D01*
X150350Y530860D02*
X165100Y530860D01*
X150350Y530860D02*
X137650Y543560D01*
X214630Y768313D02*
X227367Y781050D01*
X214630Y768313D02*
X214630Y682027D01*
X227367Y781050D02*
X545465Y781050D01*
X513715Y755650D02*
X513715Y736600D01*
X513715Y755650D02*
X507683Y761683D01*
X229870Y600673D02*
X207010Y577813D01*
X207010Y450850D01*
X185420Y429260D01*
X165100Y429260D01*
X229870Y600673D02*
X229870Y749263D01*
X242290Y761683D01*
X507683Y761683D01*
X165100Y275590D02*
X124460Y275590D01*
X102870Y297180D02*
X102870Y613373D01*
X102870Y297180D02*
X124460Y275590D01*
X151757Y662260D02*
X151757Y734681D01*
X151757Y662260D02*
X102870Y613373D01*
X87630Y619685D02*
X87630Y255270D01*
X118110Y224790D01*
X126365Y705485D02*
X126365Y734060D01*
X126365Y705485D02*
X127000Y704850D01*
X127000Y659055D01*
X87630Y619685D01*
X118110Y224790D02*
X165100Y224790D01*
X165100Y173990D02*
X162560Y171450D01*
X110490Y171450D02*
X72390Y209550D01*
X72390Y625998D01*
X110490Y171450D02*
X162560Y171450D01*
X100973Y654580D02*
X100973Y733439D01*
X100973Y654580D02*
X72390Y625998D01*
X276860Y137160D02*
X306070Y137160D01*
X262890Y123190D02*
X241300Y123190D01*
X262890Y123190D02*
X276860Y137160D01*
X278130Y162560D02*
X306070Y162560D01*
X278130Y162560D02*
X266700Y173990D01*
X241300Y173990D01*
X241300Y224790D02*
X257810Y224790D01*
X294640Y187960D02*
X306070Y187960D01*
X294640Y187960D02*
X257810Y224790D01*
X274320Y232410D02*
X274320Y259080D01*
X293370Y213360D02*
X306070Y213360D01*
X293370Y213360D02*
X274320Y232410D01*
X274320Y259080D02*
X257810Y275590D01*
X241300Y275590D01*
X563880Y131233D02*
X576580Y131233D01*
X563880Y131233D02*
X544407Y111760D01*
X458470Y111760D01*
X356870Y213360D01*
X331470Y213360D01*
X256540Y378460D02*
X241300Y378460D01*
X294640Y340360D02*
X306070Y340360D01*
X273050Y361950D02*
X256540Y378460D01*
X273050Y361950D02*
X294640Y340360D01*
X256540Y429260D02*
X241300Y429260D01*
X273050Y412750D02*
X273050Y389853D01*
X297143Y365760D02*
X306070Y365760D01*
X280651Y382251D02*
X273050Y389853D01*
X280651Y382251D02*
X297143Y365760D01*
X273050Y412750D02*
X256540Y429260D01*
X281940Y427990D02*
X293370Y416560D01*
X281940Y427990D02*
X260350Y449580D01*
X260350Y473710D02*
X254000Y480060D01*
X241300Y480060D01*
X260350Y473710D02*
X260350Y463550D01*
X260350Y449580D01*
X293370Y416560D02*
X306070Y416560D01*
X256540Y530860D02*
X241300Y530860D01*
X290599Y441960D02*
X306070Y441960D01*
X290599Y441960D02*
X280554Y452004D01*
X276080Y456479D01*
X276080Y511320D01*
X266700Y520700D02*
X256540Y530860D01*
X266700Y520700D02*
X276080Y511320D01*
X118110Y607060D02*
X196850Y685800D01*
X118110Y607060D02*
X118110Y508000D01*
X146050Y480060D01*
X165100Y480060D01*
X196850Y787363D02*
X209587Y800100D01*
X196850Y787363D02*
X196850Y685800D01*
X584200Y800100D02*
X615950Y768350D01*
X615950Y727710D01*
X591820Y703580D01*
X548640Y703580D01*
X584200Y800100D02*
X209587Y800100D01*
X539115Y713105D02*
X548640Y703580D01*
X539115Y713105D02*
X539115Y736600D01*
X285750Y704850D02*
X266700Y723900D01*
X285750Y704850D02*
X285750Y523203D01*
X290793Y518160D02*
X306070Y518160D01*
X290793Y518160D02*
X285750Y523203D01*
X368300Y704850D02*
X349250Y723900D01*
X368300Y508000D02*
X353060Y492760D01*
X331470Y492760D01*
X368300Y508000D02*
X368300Y704850D01*
X327660Y629920D02*
X353060Y604520D01*
X353060Y527050D01*
X344170Y518160D01*
X331470Y518160D01*
X327660Y629920D02*
X327660Y704215D01*
X307975Y723900D01*
X331470Y416560D02*
X353060Y416560D01*
X412750Y476250D02*
X412750Y584200D01*
X412750Y476250D02*
X353060Y416560D01*
X454660Y626110D02*
X454660Y701040D01*
X454660Y626110D02*
X412750Y584200D01*
X454660Y701040D02*
X431800Y723900D01*
X409720Y704705D02*
X409720Y602723D01*
X397510Y590513D01*
X397510Y511810D01*
X353060Y467360D01*
X331470Y467360D01*
X409720Y704705D02*
X390525Y723900D01*
X590550Y501650D02*
X596900Y495300D01*
X596900Y431800D01*
X593725Y428625D01*
X527722Y428625D01*
X439457Y340360D02*
X331470Y340360D01*
X439457Y340360D02*
X527722Y428625D01*
X576580Y501650D02*
X590550Y501650D01*
X458470Y477520D02*
X446405Y477520D01*
X485140Y450850D02*
X500380Y450850D01*
X485140Y450850D02*
X458470Y477520D01*
M02*
