G04 EAGLE Gerber RS-274X export*
G75*
%MOMM*%
%FSLAX34Y34*%
%LPD*%
%INSilkscreen Top*%
%IPPOS*%
%AMOC8*
5,1,8,0,0,1.08239X$1,22.5*%
G01*
%ADD10C,0.152400*%
%ADD11C,0.127000*%
%ADD12C,0.254000*%


D10*
X596265Y723900D02*
X583565Y723900D01*
X577215Y730250D01*
X577215Y742950D02*
X583565Y749300D01*
X577215Y730250D02*
X570865Y723900D01*
X558165Y723900D01*
X551815Y730250D01*
X551815Y742950D02*
X558165Y749300D01*
X570865Y749300D01*
X577215Y742950D01*
X602615Y742950D02*
X602615Y730250D01*
X596265Y723900D01*
X602615Y742950D02*
X596265Y749300D01*
X583565Y749300D01*
X551815Y730250D02*
X545465Y723900D01*
X532765Y723900D01*
X526415Y730250D01*
X526415Y742950D02*
X532765Y749300D01*
X545465Y749300D01*
X551815Y742950D01*
X520065Y723900D02*
X507365Y723900D01*
X501015Y730250D01*
X501015Y742950D02*
X507365Y749300D01*
X501015Y730250D02*
X494665Y723900D01*
X481965Y723900D01*
X475615Y730250D01*
X475615Y742950D01*
X481965Y749300D01*
X494665Y749300D01*
X501015Y742950D01*
X520065Y723900D02*
X526415Y730250D01*
X526415Y742950D02*
X520065Y749300D01*
X507365Y749300D01*
D11*
X589280Y762635D02*
X592455Y765175D01*
X592455Y753745D01*
X589280Y753745D02*
X595630Y753745D01*
X491490Y708025D02*
X487680Y708025D01*
X491490Y708025D02*
X491590Y708027D01*
X491689Y708033D01*
X491789Y708043D01*
X491887Y708056D01*
X491986Y708074D01*
X492083Y708095D01*
X492179Y708120D01*
X492275Y708149D01*
X492369Y708182D01*
X492462Y708218D01*
X492553Y708258D01*
X492643Y708302D01*
X492731Y708349D01*
X492817Y708399D01*
X492901Y708453D01*
X492983Y708510D01*
X493062Y708570D01*
X493140Y708634D01*
X493214Y708700D01*
X493286Y708769D01*
X493355Y708841D01*
X493421Y708915D01*
X493485Y708993D01*
X493545Y709072D01*
X493602Y709154D01*
X493656Y709238D01*
X493706Y709324D01*
X493753Y709412D01*
X493797Y709502D01*
X493837Y709593D01*
X493873Y709686D01*
X493906Y709780D01*
X493935Y709876D01*
X493960Y709972D01*
X493981Y710069D01*
X493999Y710168D01*
X494012Y710266D01*
X494022Y710366D01*
X494028Y710465D01*
X494030Y710565D01*
X494030Y711835D01*
X494028Y711935D01*
X494022Y712034D01*
X494012Y712134D01*
X493999Y712232D01*
X493981Y712331D01*
X493960Y712428D01*
X493935Y712524D01*
X493906Y712620D01*
X493873Y712714D01*
X493837Y712807D01*
X493797Y712898D01*
X493753Y712988D01*
X493706Y713076D01*
X493656Y713162D01*
X493602Y713246D01*
X493545Y713328D01*
X493485Y713407D01*
X493421Y713485D01*
X493355Y713559D01*
X493286Y713631D01*
X493214Y713700D01*
X493140Y713766D01*
X493062Y713830D01*
X492983Y713890D01*
X492901Y713947D01*
X492817Y714001D01*
X492731Y714051D01*
X492643Y714098D01*
X492553Y714142D01*
X492462Y714182D01*
X492369Y714218D01*
X492275Y714251D01*
X492179Y714280D01*
X492083Y714305D01*
X491986Y714326D01*
X491887Y714344D01*
X491789Y714357D01*
X491689Y714367D01*
X491590Y714373D01*
X491490Y714375D01*
X487680Y714375D01*
X487680Y719455D01*
X494030Y719455D01*
D10*
X183808Y722760D02*
X171112Y722450D01*
X164609Y728643D01*
X164298Y741339D02*
X170491Y747842D01*
X164609Y728643D02*
X158416Y722140D01*
X145720Y721829D01*
X139216Y728022D01*
X138906Y740718D02*
X145099Y747222D01*
X157795Y747532D01*
X164298Y741339D01*
X189691Y741960D02*
X190001Y729263D01*
X183808Y722760D01*
X189691Y741960D02*
X183188Y748153D01*
X170491Y747842D01*
X139216Y728022D02*
X133023Y721519D01*
X120327Y721209D01*
X113824Y727402D01*
X113514Y740098D02*
X119707Y746601D01*
X132403Y746911D01*
X138906Y740718D01*
X107631Y720898D02*
X94935Y720588D01*
X88432Y726781D01*
X88121Y739477D02*
X94314Y745980D01*
X88432Y726781D02*
X82239Y720278D01*
X69542Y719967D01*
X63039Y726160D01*
X62729Y738857D01*
X68922Y745360D01*
X81618Y745670D01*
X88121Y739477D01*
X107631Y720898D02*
X113824Y727402D01*
X113514Y740098D02*
X107010Y746291D01*
X94314Y745980D01*
D11*
X175879Y761313D02*
X178991Y763930D01*
X179270Y752503D01*
X176096Y752425D02*
X182444Y752581D01*
X79452Y704330D02*
X75643Y704237D01*
X79452Y704330D02*
X79552Y704334D01*
X79651Y704342D01*
X79750Y704355D01*
X79848Y704371D01*
X79946Y704391D01*
X80043Y704414D01*
X80139Y704442D01*
X80234Y704473D01*
X80327Y704508D01*
X80419Y704547D01*
X80509Y704589D01*
X80598Y704635D01*
X80685Y704684D01*
X80770Y704736D01*
X80852Y704792D01*
X80933Y704851D01*
X81011Y704913D01*
X81086Y704978D01*
X81159Y705047D01*
X81229Y705117D01*
X81297Y705191D01*
X81361Y705267D01*
X81423Y705346D01*
X81481Y705427D01*
X81536Y705510D01*
X81587Y705595D01*
X81636Y705682D01*
X81681Y705772D01*
X81722Y705862D01*
X81760Y705955D01*
X81794Y706048D01*
X81824Y706143D01*
X81851Y706239D01*
X81874Y706337D01*
X81893Y706435D01*
X81908Y706533D01*
X81919Y706632D01*
X81926Y706732D01*
X81930Y706831D01*
X81929Y706931D01*
X81898Y708201D01*
X81894Y708301D01*
X81886Y708400D01*
X81873Y708499D01*
X81857Y708598D01*
X81837Y708695D01*
X81814Y708792D01*
X81786Y708888D01*
X81755Y708983D01*
X81720Y709076D01*
X81681Y709168D01*
X81639Y709258D01*
X81593Y709347D01*
X81544Y709434D01*
X81492Y709519D01*
X81436Y709601D01*
X81377Y709682D01*
X81315Y709760D01*
X81250Y709835D01*
X81181Y709908D01*
X81111Y709978D01*
X81037Y710046D01*
X80961Y710110D01*
X80882Y710172D01*
X80801Y710230D01*
X80718Y710285D01*
X80633Y710336D01*
X80546Y710385D01*
X80456Y710430D01*
X80366Y710471D01*
X80273Y710509D01*
X80180Y710543D01*
X80085Y710573D01*
X79989Y710600D01*
X79891Y710623D01*
X79794Y710642D01*
X79695Y710657D01*
X79596Y710668D01*
X79496Y710675D01*
X79397Y710679D01*
X79297Y710678D01*
X75488Y710585D01*
X75364Y715663D01*
X81712Y715819D01*
D10*
X459105Y585470D02*
X459105Y572770D01*
X452755Y566420D01*
X440055Y566420D02*
X433705Y572770D01*
X452755Y566420D02*
X459105Y560070D01*
X459105Y547370D01*
X452755Y541020D01*
X440055Y541020D02*
X433705Y547370D01*
X433705Y560070D01*
X440055Y566420D01*
X440055Y591820D02*
X452755Y591820D01*
X459105Y585470D01*
X440055Y591820D02*
X433705Y585470D01*
X433705Y572770D01*
X452755Y541020D02*
X459105Y534670D01*
X459105Y521970D01*
X452755Y515620D01*
X440055Y515620D02*
X433705Y521970D01*
X433705Y534670D01*
X440055Y541020D01*
X459105Y509270D02*
X459105Y496570D01*
X452755Y490220D01*
X440055Y490220D02*
X433705Y496570D01*
X452755Y490220D02*
X459105Y483870D01*
X459105Y471170D01*
X452755Y464820D01*
X440055Y464820D01*
X433705Y471170D01*
X433705Y483870D01*
X440055Y490220D01*
X459105Y509270D02*
X452755Y515620D01*
X440055Y515620D02*
X433705Y509270D01*
X433705Y496570D01*
D11*
X420370Y578485D02*
X417830Y581660D01*
X429260Y581660D01*
X429260Y578485D02*
X429260Y584835D01*
X474980Y480695D02*
X474980Y476885D01*
X474980Y480695D02*
X474978Y480795D01*
X474972Y480894D01*
X474962Y480994D01*
X474949Y481092D01*
X474931Y481191D01*
X474910Y481288D01*
X474885Y481384D01*
X474856Y481480D01*
X474823Y481574D01*
X474787Y481667D01*
X474747Y481758D01*
X474703Y481848D01*
X474656Y481936D01*
X474606Y482022D01*
X474552Y482106D01*
X474495Y482188D01*
X474435Y482267D01*
X474371Y482345D01*
X474305Y482419D01*
X474236Y482491D01*
X474164Y482560D01*
X474090Y482626D01*
X474012Y482690D01*
X473933Y482750D01*
X473851Y482807D01*
X473767Y482861D01*
X473681Y482911D01*
X473593Y482958D01*
X473503Y483002D01*
X473412Y483042D01*
X473319Y483078D01*
X473225Y483111D01*
X473129Y483140D01*
X473033Y483165D01*
X472936Y483186D01*
X472837Y483204D01*
X472739Y483217D01*
X472639Y483227D01*
X472540Y483233D01*
X472440Y483235D01*
X471170Y483235D01*
X471070Y483233D01*
X470971Y483227D01*
X470871Y483217D01*
X470773Y483204D01*
X470674Y483186D01*
X470577Y483165D01*
X470481Y483140D01*
X470385Y483111D01*
X470291Y483078D01*
X470198Y483042D01*
X470107Y483002D01*
X470017Y482958D01*
X469929Y482911D01*
X469843Y482861D01*
X469759Y482807D01*
X469677Y482750D01*
X469598Y482690D01*
X469520Y482626D01*
X469446Y482560D01*
X469374Y482491D01*
X469305Y482419D01*
X469239Y482345D01*
X469175Y482267D01*
X469115Y482188D01*
X469058Y482106D01*
X469004Y482022D01*
X468954Y481936D01*
X468907Y481848D01*
X468863Y481758D01*
X468823Y481667D01*
X468787Y481574D01*
X468754Y481480D01*
X468725Y481384D01*
X468700Y481288D01*
X468679Y481191D01*
X468661Y481092D01*
X468648Y480994D01*
X468638Y480894D01*
X468632Y480795D01*
X468630Y480695D01*
X468630Y476885D01*
X463550Y476885D01*
X463550Y483235D01*
D10*
X451485Y267970D02*
X451485Y255270D01*
X445135Y248920D01*
X432435Y248920D02*
X426085Y255270D01*
X445135Y248920D02*
X451485Y242570D01*
X451485Y229870D01*
X445135Y223520D01*
X432435Y223520D02*
X426085Y229870D01*
X426085Y242570D01*
X432435Y248920D01*
X432435Y274320D02*
X445135Y274320D01*
X451485Y267970D01*
X432435Y274320D02*
X426085Y267970D01*
X426085Y255270D01*
X445135Y223520D02*
X451485Y217170D01*
X451485Y204470D01*
X445135Y198120D01*
X432435Y198120D02*
X426085Y204470D01*
X426085Y217170D01*
X432435Y223520D01*
X451485Y191770D02*
X451485Y179070D01*
X445135Y172720D01*
X432435Y172720D02*
X426085Y179070D01*
X445135Y172720D02*
X451485Y166370D01*
X451485Y153670D01*
X445135Y147320D01*
X432435Y147320D01*
X426085Y153670D01*
X426085Y166370D01*
X432435Y172720D01*
X451485Y191770D02*
X445135Y198120D01*
X432435Y198120D02*
X426085Y191770D01*
X426085Y179070D01*
D11*
X412750Y260985D02*
X410210Y264160D01*
X421640Y264160D01*
X421640Y260985D02*
X421640Y267335D01*
X467360Y163195D02*
X467360Y159385D01*
X467360Y163195D02*
X467358Y163295D01*
X467352Y163394D01*
X467342Y163494D01*
X467329Y163592D01*
X467311Y163691D01*
X467290Y163788D01*
X467265Y163884D01*
X467236Y163980D01*
X467203Y164074D01*
X467167Y164167D01*
X467127Y164258D01*
X467083Y164348D01*
X467036Y164436D01*
X466986Y164522D01*
X466932Y164606D01*
X466875Y164688D01*
X466815Y164767D01*
X466751Y164845D01*
X466685Y164919D01*
X466616Y164991D01*
X466544Y165060D01*
X466470Y165126D01*
X466392Y165190D01*
X466313Y165250D01*
X466231Y165307D01*
X466147Y165361D01*
X466061Y165411D01*
X465973Y165458D01*
X465883Y165502D01*
X465792Y165542D01*
X465699Y165578D01*
X465605Y165611D01*
X465509Y165640D01*
X465413Y165665D01*
X465316Y165686D01*
X465217Y165704D01*
X465119Y165717D01*
X465019Y165727D01*
X464920Y165733D01*
X464820Y165735D01*
X463550Y165735D01*
X463450Y165733D01*
X463351Y165727D01*
X463251Y165717D01*
X463153Y165704D01*
X463054Y165686D01*
X462957Y165665D01*
X462861Y165640D01*
X462765Y165611D01*
X462671Y165578D01*
X462578Y165542D01*
X462487Y165502D01*
X462397Y165458D01*
X462309Y165411D01*
X462223Y165361D01*
X462139Y165307D01*
X462057Y165250D01*
X461978Y165190D01*
X461900Y165126D01*
X461826Y165060D01*
X461754Y164991D01*
X461685Y164919D01*
X461619Y164845D01*
X461555Y164767D01*
X461495Y164688D01*
X461438Y164606D01*
X461384Y164522D01*
X461334Y164436D01*
X461287Y164348D01*
X461243Y164258D01*
X461203Y164167D01*
X461167Y164074D01*
X461134Y163980D01*
X461105Y163884D01*
X461080Y163788D01*
X461059Y163691D01*
X461041Y163592D01*
X461028Y163494D01*
X461018Y163394D01*
X461012Y163295D01*
X461010Y163195D01*
X461010Y159385D01*
X455930Y159385D01*
X455930Y165735D01*
D10*
X293370Y600710D02*
X299720Y607060D01*
X293370Y600710D02*
X293370Y588010D01*
X299720Y581660D01*
X293370Y575310D01*
X293370Y562610D01*
X299720Y556260D01*
X293370Y549910D01*
X293370Y537210D01*
X299720Y530860D01*
X293370Y524510D01*
X293370Y511810D01*
X299720Y505460D01*
X293370Y499110D01*
X293370Y486410D01*
X299720Y480060D01*
X293370Y473710D01*
X293370Y461010D01*
X299720Y454660D01*
X299720Y607060D02*
X337820Y607060D01*
X344170Y600710D01*
X344170Y588010D01*
X337820Y581660D01*
X344170Y575310D01*
X344170Y562610D01*
X337820Y556260D01*
X344170Y549910D01*
X344170Y537210D01*
X337820Y530860D01*
X344170Y524510D01*
X344170Y511810D01*
X337820Y505460D01*
X344170Y499110D01*
X344170Y486410D01*
X337820Y480060D01*
X344170Y473710D01*
X344170Y461010D01*
X337820Y454660D01*
X344170Y448310D01*
X344170Y435610D01*
X337820Y429260D01*
X344170Y422910D01*
X344170Y410210D01*
X337820Y403860D01*
X344170Y397510D01*
X344170Y384810D01*
X337820Y378460D01*
X344170Y372110D01*
X344170Y359410D01*
X337820Y353060D01*
X344170Y346710D01*
X344170Y334010D01*
X337820Y327660D01*
X344170Y321310D01*
X344170Y308610D01*
X337820Y302260D01*
X344170Y295910D01*
X344170Y283210D01*
X337820Y276860D01*
X344170Y270510D01*
X344170Y257810D01*
X337820Y251460D01*
X344170Y245110D01*
X344170Y232410D01*
X337820Y226060D01*
X344170Y219710D01*
X344170Y207010D01*
X337820Y200660D01*
X344170Y194310D01*
X344170Y181610D01*
X337820Y175260D01*
X344170Y168910D01*
X344170Y156210D01*
X337820Y149860D01*
X344170Y143510D01*
X344170Y130810D01*
X337820Y124460D01*
X299720Y124460D02*
X293370Y130810D01*
X293370Y143510D01*
X299720Y149860D01*
X293370Y156210D01*
X293370Y168910D01*
X299720Y175260D01*
X293370Y181610D01*
X293370Y194310D01*
X299720Y200660D01*
X293370Y207010D01*
X293370Y219710D01*
X299720Y226060D01*
X293370Y232410D01*
X293370Y245110D01*
X299720Y251460D01*
X293370Y257810D01*
X293370Y270510D01*
X299720Y276860D01*
X293370Y283210D01*
X293370Y295910D01*
X299720Y302260D01*
X293370Y308610D01*
X293370Y321310D01*
X299720Y327660D01*
X293370Y334010D01*
X293370Y346710D01*
X299720Y353060D01*
X293370Y359410D01*
X293370Y372110D01*
X299720Y378460D01*
X293370Y384810D01*
X293370Y397510D01*
X299720Y403860D01*
X293370Y410210D01*
X293370Y422910D01*
X299720Y429260D01*
X293370Y435610D01*
X293370Y448310D01*
X299720Y454660D01*
X299720Y581660D02*
X337820Y581660D01*
X337820Y556260D02*
X299720Y556260D01*
X299720Y530860D02*
X337820Y530860D01*
X337820Y505460D02*
X299720Y505460D01*
X299720Y480060D02*
X337820Y480060D01*
X337820Y454660D02*
X299720Y454660D01*
X299720Y429260D02*
X337820Y429260D01*
X337820Y403860D02*
X299720Y403860D01*
X299720Y378460D02*
X337820Y378460D01*
X337820Y353060D02*
X299720Y353060D01*
X299720Y327660D02*
X337820Y327660D01*
X337820Y302260D02*
X299720Y302260D01*
X299720Y276860D02*
X337820Y276860D01*
X337820Y251460D02*
X299720Y251460D01*
X299720Y226060D02*
X337820Y226060D01*
X337820Y200660D02*
X299720Y200660D01*
X299720Y175260D02*
X337820Y175260D01*
X337820Y149860D02*
X299720Y149860D01*
X299720Y124460D02*
X337820Y124460D01*
X344170Y118110D01*
X344170Y105410D01*
X337820Y99060D01*
X299720Y99060D02*
X293370Y105410D01*
X293370Y118110D01*
X299720Y124460D01*
X299720Y99060D02*
X337820Y99060D01*
X152400Y365760D02*
X152400Y568960D01*
X254000Y568960D02*
X254000Y365760D01*
X177800Y568960D02*
X152400Y568960D01*
X152400Y365760D02*
X177800Y365760D01*
X228600Y365760D02*
X254000Y365760D01*
X213360Y365760D02*
X213357Y366007D01*
X213348Y366255D01*
X213333Y366502D01*
X213312Y366748D01*
X213285Y366994D01*
X213252Y367239D01*
X213213Y367484D01*
X213168Y367727D01*
X213117Y367969D01*
X213060Y368210D01*
X212998Y368449D01*
X212929Y368687D01*
X212855Y368923D01*
X212775Y369157D01*
X212690Y369389D01*
X212598Y369619D01*
X212502Y369847D01*
X212399Y370072D01*
X212292Y370295D01*
X212178Y370515D01*
X212060Y370732D01*
X211936Y370947D01*
X211807Y371158D01*
X211673Y371366D01*
X211534Y371571D01*
X211390Y371772D01*
X211242Y371970D01*
X211088Y372164D01*
X210930Y372354D01*
X210767Y372540D01*
X210600Y372722D01*
X210428Y372900D01*
X210252Y373074D01*
X210072Y373244D01*
X209887Y373409D01*
X209699Y373569D01*
X209507Y373725D01*
X209311Y373877D01*
X209112Y374023D01*
X208909Y374165D01*
X208702Y374301D01*
X208493Y374433D01*
X208280Y374559D01*
X208064Y374680D01*
X207846Y374796D01*
X207624Y374906D01*
X207400Y375011D01*
X207174Y375111D01*
X206945Y375205D01*
X206714Y375293D01*
X206480Y375376D01*
X206245Y375453D01*
X206008Y375524D01*
X205770Y375590D01*
X205530Y375649D01*
X205288Y375703D01*
X205045Y375751D01*
X204802Y375793D01*
X204557Y375829D01*
X204311Y375859D01*
X204065Y375883D01*
X203818Y375901D01*
X203571Y375913D01*
X203324Y375919D01*
X203076Y375919D01*
X202829Y375913D01*
X202582Y375901D01*
X202335Y375883D01*
X202089Y375859D01*
X201843Y375829D01*
X201598Y375793D01*
X201355Y375751D01*
X201112Y375703D01*
X200870Y375649D01*
X200630Y375590D01*
X200392Y375524D01*
X200155Y375453D01*
X199920Y375376D01*
X199686Y375293D01*
X199455Y375205D01*
X199226Y375111D01*
X199000Y375011D01*
X198776Y374906D01*
X198554Y374796D01*
X198336Y374680D01*
X198120Y374559D01*
X197907Y374433D01*
X197698Y374301D01*
X197491Y374165D01*
X197288Y374023D01*
X197089Y373877D01*
X196893Y373725D01*
X196701Y373569D01*
X196513Y373409D01*
X196328Y373244D01*
X196148Y373074D01*
X195972Y372900D01*
X195800Y372722D01*
X195633Y372540D01*
X195470Y372354D01*
X195312Y372164D01*
X195158Y371970D01*
X195010Y371772D01*
X194866Y371571D01*
X194727Y371366D01*
X194593Y371158D01*
X194464Y370947D01*
X194340Y370732D01*
X194222Y370515D01*
X194108Y370295D01*
X194001Y370072D01*
X193898Y369847D01*
X193802Y369619D01*
X193710Y369389D01*
X193625Y369157D01*
X193545Y368923D01*
X193471Y368687D01*
X193402Y368449D01*
X193340Y368210D01*
X193283Y367969D01*
X193232Y367727D01*
X193187Y367484D01*
X193148Y367239D01*
X193115Y366994D01*
X193088Y366748D01*
X193067Y366502D01*
X193052Y366255D01*
X193043Y366007D01*
X193040Y365760D01*
X177800Y365760D02*
X177800Y568960D01*
X177800Y365760D02*
X193040Y365760D01*
X177800Y568960D02*
X228600Y568960D01*
X228600Y365760D01*
X213360Y365760D01*
X228600Y568960D02*
X254000Y568960D01*
X152400Y313690D02*
X152400Y110490D01*
X254000Y110490D02*
X254000Y313690D01*
X177800Y313690D02*
X152400Y313690D01*
X152400Y110490D02*
X177800Y110490D01*
X228600Y110490D02*
X254000Y110490D01*
X213360Y110490D02*
X213357Y110737D01*
X213348Y110985D01*
X213333Y111232D01*
X213312Y111478D01*
X213285Y111724D01*
X213252Y111969D01*
X213213Y112214D01*
X213168Y112457D01*
X213117Y112699D01*
X213060Y112940D01*
X212998Y113179D01*
X212929Y113417D01*
X212855Y113653D01*
X212775Y113887D01*
X212690Y114119D01*
X212598Y114349D01*
X212502Y114577D01*
X212399Y114802D01*
X212292Y115025D01*
X212178Y115245D01*
X212060Y115462D01*
X211936Y115677D01*
X211807Y115888D01*
X211673Y116096D01*
X211534Y116301D01*
X211390Y116502D01*
X211242Y116700D01*
X211088Y116894D01*
X210930Y117084D01*
X210767Y117270D01*
X210600Y117452D01*
X210428Y117630D01*
X210252Y117804D01*
X210072Y117974D01*
X209887Y118139D01*
X209699Y118299D01*
X209507Y118455D01*
X209311Y118607D01*
X209112Y118753D01*
X208909Y118895D01*
X208702Y119031D01*
X208493Y119163D01*
X208280Y119289D01*
X208064Y119410D01*
X207846Y119526D01*
X207624Y119636D01*
X207400Y119741D01*
X207174Y119841D01*
X206945Y119935D01*
X206714Y120023D01*
X206480Y120106D01*
X206245Y120183D01*
X206008Y120254D01*
X205770Y120320D01*
X205530Y120379D01*
X205288Y120433D01*
X205045Y120481D01*
X204802Y120523D01*
X204557Y120559D01*
X204311Y120589D01*
X204065Y120613D01*
X203818Y120631D01*
X203571Y120643D01*
X203324Y120649D01*
X203076Y120649D01*
X202829Y120643D01*
X202582Y120631D01*
X202335Y120613D01*
X202089Y120589D01*
X201843Y120559D01*
X201598Y120523D01*
X201355Y120481D01*
X201112Y120433D01*
X200870Y120379D01*
X200630Y120320D01*
X200392Y120254D01*
X200155Y120183D01*
X199920Y120106D01*
X199686Y120023D01*
X199455Y119935D01*
X199226Y119841D01*
X199000Y119741D01*
X198776Y119636D01*
X198554Y119526D01*
X198336Y119410D01*
X198120Y119289D01*
X197907Y119163D01*
X197698Y119031D01*
X197491Y118895D01*
X197288Y118753D01*
X197089Y118607D01*
X196893Y118455D01*
X196701Y118299D01*
X196513Y118139D01*
X196328Y117974D01*
X196148Y117804D01*
X195972Y117630D01*
X195800Y117452D01*
X195633Y117270D01*
X195470Y117084D01*
X195312Y116894D01*
X195158Y116700D01*
X195010Y116502D01*
X194866Y116301D01*
X194727Y116096D01*
X194593Y115888D01*
X194464Y115677D01*
X194340Y115462D01*
X194222Y115245D01*
X194108Y115025D01*
X194001Y114802D01*
X193898Y114577D01*
X193802Y114349D01*
X193710Y114119D01*
X193625Y113887D01*
X193545Y113653D01*
X193471Y113417D01*
X193402Y113179D01*
X193340Y112940D01*
X193283Y112699D01*
X193232Y112457D01*
X193187Y112214D01*
X193148Y111969D01*
X193115Y111724D01*
X193088Y111478D01*
X193067Y111232D01*
X193052Y110985D01*
X193043Y110737D01*
X193040Y110490D01*
X177800Y110490D02*
X177800Y313690D01*
X177800Y110490D02*
X193040Y110490D01*
X177800Y313690D02*
X228600Y313690D01*
X228600Y110490D01*
X213360Y110490D01*
X228600Y313690D02*
X254000Y313690D01*
X487680Y321733D02*
X487680Y118533D01*
X589280Y118533D02*
X589280Y321733D01*
X513080Y321733D02*
X487680Y321733D01*
X487680Y118533D02*
X513080Y118533D01*
X563880Y118533D02*
X589280Y118533D01*
X548640Y118533D02*
X548637Y118780D01*
X548628Y119028D01*
X548613Y119275D01*
X548592Y119521D01*
X548565Y119767D01*
X548532Y120012D01*
X548493Y120257D01*
X548448Y120500D01*
X548397Y120742D01*
X548340Y120983D01*
X548278Y121222D01*
X548209Y121460D01*
X548135Y121696D01*
X548055Y121930D01*
X547970Y122162D01*
X547878Y122392D01*
X547782Y122620D01*
X547679Y122845D01*
X547572Y123068D01*
X547458Y123288D01*
X547340Y123505D01*
X547216Y123720D01*
X547087Y123931D01*
X546953Y124139D01*
X546814Y124344D01*
X546670Y124545D01*
X546522Y124743D01*
X546368Y124937D01*
X546210Y125127D01*
X546047Y125313D01*
X545880Y125495D01*
X545708Y125673D01*
X545532Y125847D01*
X545352Y126017D01*
X545167Y126182D01*
X544979Y126342D01*
X544787Y126498D01*
X544591Y126650D01*
X544392Y126796D01*
X544189Y126938D01*
X543982Y127074D01*
X543773Y127206D01*
X543560Y127332D01*
X543344Y127453D01*
X543126Y127569D01*
X542904Y127679D01*
X542680Y127784D01*
X542454Y127884D01*
X542225Y127978D01*
X541994Y128066D01*
X541760Y128149D01*
X541525Y128226D01*
X541288Y128297D01*
X541050Y128363D01*
X540810Y128422D01*
X540568Y128476D01*
X540325Y128524D01*
X540082Y128566D01*
X539837Y128602D01*
X539591Y128632D01*
X539345Y128656D01*
X539098Y128674D01*
X538851Y128686D01*
X538604Y128692D01*
X538356Y128692D01*
X538109Y128686D01*
X537862Y128674D01*
X537615Y128656D01*
X537369Y128632D01*
X537123Y128602D01*
X536878Y128566D01*
X536635Y128524D01*
X536392Y128476D01*
X536150Y128422D01*
X535910Y128363D01*
X535672Y128297D01*
X535435Y128226D01*
X535200Y128149D01*
X534966Y128066D01*
X534735Y127978D01*
X534506Y127884D01*
X534280Y127784D01*
X534056Y127679D01*
X533834Y127569D01*
X533616Y127453D01*
X533400Y127332D01*
X533187Y127206D01*
X532978Y127074D01*
X532771Y126938D01*
X532568Y126796D01*
X532369Y126650D01*
X532173Y126498D01*
X531981Y126342D01*
X531793Y126182D01*
X531608Y126017D01*
X531428Y125847D01*
X531252Y125673D01*
X531080Y125495D01*
X530913Y125313D01*
X530750Y125127D01*
X530592Y124937D01*
X530438Y124743D01*
X530290Y124545D01*
X530146Y124344D01*
X530007Y124139D01*
X529873Y123931D01*
X529744Y123720D01*
X529620Y123505D01*
X529502Y123288D01*
X529388Y123068D01*
X529281Y122845D01*
X529178Y122620D01*
X529082Y122392D01*
X528990Y122162D01*
X528905Y121930D01*
X528825Y121696D01*
X528751Y121460D01*
X528682Y121222D01*
X528620Y120983D01*
X528563Y120742D01*
X528512Y120500D01*
X528467Y120257D01*
X528428Y120012D01*
X528395Y119767D01*
X528368Y119521D01*
X528347Y119275D01*
X528332Y119028D01*
X528323Y118780D01*
X528320Y118533D01*
X513080Y118533D02*
X513080Y321733D01*
X513080Y118533D02*
X528320Y118533D01*
X513080Y321733D02*
X563880Y321733D01*
X563880Y118533D01*
X548640Y118533D01*
X563880Y321733D02*
X589280Y321733D01*
X487680Y438150D02*
X487680Y641350D01*
X589280Y641350D02*
X589280Y438150D01*
X513080Y641350D02*
X487680Y641350D01*
X487680Y438150D02*
X513080Y438150D01*
X563880Y438150D02*
X589280Y438150D01*
X548640Y438150D02*
X548637Y438397D01*
X548628Y438645D01*
X548613Y438892D01*
X548592Y439138D01*
X548565Y439384D01*
X548532Y439629D01*
X548493Y439874D01*
X548448Y440117D01*
X548397Y440359D01*
X548340Y440600D01*
X548278Y440839D01*
X548209Y441077D01*
X548135Y441313D01*
X548055Y441547D01*
X547970Y441779D01*
X547878Y442009D01*
X547782Y442237D01*
X547679Y442462D01*
X547572Y442685D01*
X547458Y442905D01*
X547340Y443122D01*
X547216Y443337D01*
X547087Y443548D01*
X546953Y443756D01*
X546814Y443961D01*
X546670Y444162D01*
X546522Y444360D01*
X546368Y444554D01*
X546210Y444744D01*
X546047Y444930D01*
X545880Y445112D01*
X545708Y445290D01*
X545532Y445464D01*
X545352Y445634D01*
X545167Y445799D01*
X544979Y445959D01*
X544787Y446115D01*
X544591Y446267D01*
X544392Y446413D01*
X544189Y446555D01*
X543982Y446691D01*
X543773Y446823D01*
X543560Y446949D01*
X543344Y447070D01*
X543126Y447186D01*
X542904Y447296D01*
X542680Y447401D01*
X542454Y447501D01*
X542225Y447595D01*
X541994Y447683D01*
X541760Y447766D01*
X541525Y447843D01*
X541288Y447914D01*
X541050Y447980D01*
X540810Y448039D01*
X540568Y448093D01*
X540325Y448141D01*
X540082Y448183D01*
X539837Y448219D01*
X539591Y448249D01*
X539345Y448273D01*
X539098Y448291D01*
X538851Y448303D01*
X538604Y448309D01*
X538356Y448309D01*
X538109Y448303D01*
X537862Y448291D01*
X537615Y448273D01*
X537369Y448249D01*
X537123Y448219D01*
X536878Y448183D01*
X536635Y448141D01*
X536392Y448093D01*
X536150Y448039D01*
X535910Y447980D01*
X535672Y447914D01*
X535435Y447843D01*
X535200Y447766D01*
X534966Y447683D01*
X534735Y447595D01*
X534506Y447501D01*
X534280Y447401D01*
X534056Y447296D01*
X533834Y447186D01*
X533616Y447070D01*
X533400Y446949D01*
X533187Y446823D01*
X532978Y446691D01*
X532771Y446555D01*
X532568Y446413D01*
X532369Y446267D01*
X532173Y446115D01*
X531981Y445959D01*
X531793Y445799D01*
X531608Y445634D01*
X531428Y445464D01*
X531252Y445290D01*
X531080Y445112D01*
X530913Y444930D01*
X530750Y444744D01*
X530592Y444554D01*
X530438Y444360D01*
X530290Y444162D01*
X530146Y443961D01*
X530007Y443756D01*
X529873Y443548D01*
X529744Y443337D01*
X529620Y443122D01*
X529502Y442905D01*
X529388Y442685D01*
X529281Y442462D01*
X529178Y442237D01*
X529082Y442009D01*
X528990Y441779D01*
X528905Y441547D01*
X528825Y441313D01*
X528751Y441077D01*
X528682Y440839D01*
X528620Y440600D01*
X528563Y440359D01*
X528512Y440117D01*
X528467Y439874D01*
X528428Y439629D01*
X528395Y439384D01*
X528368Y439138D01*
X528347Y438892D01*
X528332Y438645D01*
X528323Y438397D01*
X528320Y438150D01*
X513080Y438150D02*
X513080Y641350D01*
X513080Y438150D02*
X528320Y438150D01*
X513080Y641350D02*
X563880Y641350D01*
X563880Y438150D01*
X548640Y438150D01*
X563880Y641350D02*
X589280Y641350D01*
D12*
X184150Y609600D02*
X184150Y596900D01*
X157480Y615950D02*
X210820Y615950D01*
X210820Y590550D01*
X157480Y590550D01*
X157480Y615950D01*
X203200Y344170D02*
X203200Y331470D01*
X176530Y350520D02*
X229870Y350520D01*
X229870Y325120D01*
X176530Y325120D01*
X176530Y350520D01*
X538480Y349250D02*
X538480Y336550D01*
X565150Y330200D02*
X511810Y330200D01*
X511810Y355600D01*
X565150Y355600D01*
X565150Y330200D01*
X532130Y656167D02*
X532130Y668867D01*
X558800Y649817D02*
X505460Y649817D01*
X505460Y675217D01*
X558800Y675217D01*
X558800Y649817D01*
D10*
X361950Y731520D02*
X361950Y736600D01*
X356870Y736600D01*
X336550Y736600D02*
X336550Y731520D01*
X336550Y736600D02*
X341630Y736600D01*
X336550Y716280D02*
X336550Y711200D01*
X341630Y711200D01*
X356870Y711200D02*
X361950Y711200D01*
X361950Y716280D01*
X444500Y731520D02*
X444500Y736600D01*
X439420Y736600D01*
X419100Y736600D02*
X419100Y731520D01*
X419100Y736600D02*
X424180Y736600D01*
X419100Y716280D02*
X419100Y711200D01*
X424180Y711200D01*
X439420Y711200D02*
X444500Y711200D01*
X444500Y716280D01*
X403225Y688975D02*
X403225Y683895D01*
X403225Y688975D02*
X398145Y688975D01*
X377825Y688975D02*
X377825Y683895D01*
X377825Y688975D02*
X382905Y688975D01*
X377825Y668655D02*
X377825Y663575D01*
X382905Y663575D01*
X398145Y663575D02*
X403225Y663575D01*
X403225Y668655D01*
X279400Y683895D02*
X279400Y688975D01*
X274320Y688975D01*
X254000Y688975D02*
X254000Y683895D01*
X254000Y688975D02*
X259080Y688975D01*
X254000Y668655D02*
X254000Y663575D01*
X259080Y663575D01*
X274320Y663575D02*
X279400Y663575D01*
X279400Y668655D01*
X320675Y683895D02*
X320675Y688975D01*
X315595Y688975D01*
X295275Y688975D02*
X295275Y683895D01*
X295275Y688975D02*
X300355Y688975D01*
X295275Y668655D02*
X295275Y663575D01*
X300355Y663575D01*
X315595Y663575D02*
X320675Y663575D01*
X320675Y668655D01*
X320675Y731520D02*
X320675Y736600D01*
X315595Y736600D01*
X295275Y736600D02*
X295275Y731520D01*
X295275Y736600D02*
X300355Y736600D01*
X295275Y716280D02*
X295275Y711200D01*
X300355Y711200D01*
X315595Y711200D02*
X320675Y711200D01*
X320675Y716280D01*
X419100Y688975D02*
X424180Y688975D01*
X419100Y688975D02*
X419100Y683895D01*
X419100Y663575D02*
X424180Y663575D01*
X419100Y663575D02*
X419100Y668655D01*
X439420Y663575D02*
X444500Y663575D01*
X444500Y668655D01*
X444500Y683895D02*
X444500Y688975D01*
X439420Y688975D01*
X361950Y688975D02*
X361950Y683895D01*
X361950Y688975D02*
X356870Y688975D01*
X336550Y688975D02*
X336550Y683895D01*
X336550Y688975D02*
X341630Y688975D01*
X336550Y668655D02*
X336550Y663575D01*
X341630Y663575D01*
X356870Y663575D02*
X361950Y663575D01*
X361950Y668655D01*
X403225Y731520D02*
X403225Y736600D01*
X398145Y736600D01*
X377825Y736600D02*
X377825Y731520D01*
X377825Y736600D02*
X382905Y736600D01*
X377825Y716280D02*
X377825Y711200D01*
X382905Y711200D01*
X398145Y711200D02*
X403225Y711200D01*
X403225Y716280D01*
X279400Y731520D02*
X279400Y736600D01*
X274320Y736600D01*
X254000Y736600D02*
X254000Y731520D01*
X254000Y736600D02*
X259080Y736600D01*
X254000Y716280D02*
X254000Y711200D01*
X259080Y711200D01*
X274320Y711200D02*
X279400Y711200D01*
X279400Y716280D01*
M02*
