G04 EAGLE Gerber RS-274X export*
G75*
%MOMM*%
%FSLAX34Y34*%
%LPD*%
%INSoldermask Top*%
%IPPOS*%
%AMOC8*
5,1,8,0,0,1.08239X$1,22.5*%
G01*
%ADD10C,2.108200*%
%ADD11C,1.727200*%
%ADD12C,1.727200*%
%ADD13P,1.869504X8X292.500000*%
%ADD14C,1.524000*%
%ADD15P,2.969212X8X22.500000*%
%ADD16P,2.969212X8X112.500000*%

G36*
X518146Y657370D02*
X518146Y657370D01*
X518272Y657368D01*
X519283Y657508D01*
X519331Y657524D01*
X519421Y657543D01*
X520376Y657904D01*
X520419Y657930D01*
X520503Y657969D01*
X521353Y658534D01*
X521390Y658569D01*
X521462Y658625D01*
X522166Y659365D01*
X522194Y659407D01*
X522252Y659478D01*
X522773Y660356D01*
X522791Y660403D01*
X522832Y660486D01*
X523145Y661458D01*
X523152Y661508D01*
X523173Y661597D01*
X523262Y662614D01*
X523257Y662665D01*
X523258Y662755D01*
X523127Y663719D01*
X523111Y663767D01*
X523092Y663857D01*
X522750Y664768D01*
X522724Y664811D01*
X522685Y664894D01*
X522148Y665706D01*
X522113Y665742D01*
X522057Y665815D01*
X521353Y666486D01*
X521311Y666514D01*
X521240Y666572D01*
X520405Y667070D01*
X520357Y667088D01*
X520275Y667129D01*
X519350Y667429D01*
X519299Y667436D01*
X519210Y667457D01*
X518241Y667543D01*
X518194Y667539D01*
X518119Y667542D01*
X517143Y667441D01*
X517095Y667427D01*
X517005Y667411D01*
X516076Y667095D01*
X516032Y667070D01*
X515947Y667034D01*
X515112Y666519D01*
X515075Y666486D01*
X515000Y666432D01*
X514301Y665744D01*
X514271Y665702D01*
X514211Y665633D01*
X513682Y664807D01*
X513663Y664760D01*
X513619Y664680D01*
X513287Y663756D01*
X513279Y663707D01*
X513254Y663618D01*
X513136Y662644D01*
X513139Y662594D01*
X513135Y662507D01*
X513230Y661505D01*
X513244Y661457D01*
X513260Y661366D01*
X513576Y660410D01*
X513600Y660366D01*
X513636Y660281D01*
X514157Y659420D01*
X514190Y659382D01*
X514243Y659308D01*
X514943Y658584D01*
X514984Y658554D01*
X515053Y658493D01*
X515896Y657944D01*
X515942Y657924D01*
X516023Y657880D01*
X516967Y657531D01*
X517017Y657522D01*
X517105Y657497D01*
X518103Y657368D01*
X518146Y657370D01*
G37*
G36*
X546137Y657370D02*
X546137Y657370D01*
X546263Y657368D01*
X547274Y657508D01*
X547322Y657524D01*
X547412Y657543D01*
X548367Y657904D01*
X548410Y657930D01*
X548494Y657969D01*
X549344Y658534D01*
X549381Y658569D01*
X549453Y658625D01*
X550157Y659365D01*
X550185Y659407D01*
X550243Y659478D01*
X550764Y660356D01*
X550782Y660403D01*
X550823Y660486D01*
X551136Y661458D01*
X551143Y661508D01*
X551164Y661597D01*
X551253Y662614D01*
X551248Y662665D01*
X551249Y662755D01*
X551118Y663719D01*
X551102Y663767D01*
X551083Y663857D01*
X550741Y664768D01*
X550715Y664811D01*
X550676Y664894D01*
X550139Y665706D01*
X550104Y665742D01*
X550048Y665815D01*
X549344Y666486D01*
X549302Y666514D01*
X549231Y666572D01*
X548396Y667070D01*
X548348Y667088D01*
X548266Y667129D01*
X547341Y667429D01*
X547290Y667436D01*
X547201Y667457D01*
X546232Y667543D01*
X546185Y667539D01*
X546110Y667542D01*
X545134Y667441D01*
X545086Y667427D01*
X544996Y667411D01*
X544067Y667095D01*
X544023Y667070D01*
X543938Y667034D01*
X543103Y666519D01*
X543066Y666486D01*
X542991Y666432D01*
X542292Y665744D01*
X542262Y665702D01*
X542202Y665633D01*
X541673Y664807D01*
X541654Y664760D01*
X541610Y664680D01*
X541278Y663756D01*
X541270Y663707D01*
X541245Y663618D01*
X541127Y662644D01*
X541130Y662594D01*
X541126Y662507D01*
X541221Y661505D01*
X541235Y661457D01*
X541251Y661366D01*
X541567Y660410D01*
X541591Y660366D01*
X541627Y660281D01*
X542148Y659420D01*
X542181Y659382D01*
X542234Y659308D01*
X542934Y658584D01*
X542975Y658554D01*
X543044Y658493D01*
X543887Y657944D01*
X543933Y657924D01*
X544014Y657880D01*
X544958Y657531D01*
X545008Y657522D01*
X545096Y657497D01*
X546094Y657368D01*
X546137Y657370D01*
G37*
G36*
X552487Y337753D02*
X552487Y337753D01*
X552613Y337752D01*
X553624Y337891D01*
X553672Y337907D01*
X553762Y337926D01*
X554717Y338288D01*
X554760Y338314D01*
X554844Y338353D01*
X555694Y338917D01*
X555731Y338952D01*
X555803Y339009D01*
X556507Y339749D01*
X556535Y339791D01*
X556593Y339862D01*
X557114Y340740D01*
X557132Y340787D01*
X557173Y340869D01*
X557486Y341841D01*
X557493Y341891D01*
X557514Y341980D01*
X557603Y342998D01*
X557598Y343048D01*
X557599Y343139D01*
X557468Y344103D01*
X557452Y344151D01*
X557433Y344240D01*
X557091Y345151D01*
X557065Y345194D01*
X557026Y345278D01*
X556489Y346089D01*
X556454Y346125D01*
X556398Y346198D01*
X555694Y346870D01*
X555652Y346898D01*
X555581Y346956D01*
X554746Y347454D01*
X554698Y347472D01*
X554616Y347512D01*
X553691Y347812D01*
X553640Y347819D01*
X553551Y347841D01*
X552582Y347927D01*
X552535Y347923D01*
X552460Y347926D01*
X551484Y347824D01*
X551436Y347810D01*
X551346Y347794D01*
X550417Y347478D01*
X550373Y347454D01*
X550288Y347417D01*
X549453Y346903D01*
X549416Y346869D01*
X549341Y346815D01*
X548642Y346127D01*
X548612Y346086D01*
X548552Y346017D01*
X548023Y345190D01*
X548004Y345144D01*
X547960Y345063D01*
X547628Y344140D01*
X547620Y344090D01*
X547595Y344001D01*
X547477Y343027D01*
X547480Y342977D01*
X547476Y342891D01*
X547571Y341889D01*
X547585Y341840D01*
X547601Y341750D01*
X547917Y340794D01*
X547941Y340749D01*
X547977Y340665D01*
X548498Y339804D01*
X548531Y339766D01*
X548584Y339691D01*
X549284Y338967D01*
X549325Y338938D01*
X549394Y338877D01*
X550237Y338327D01*
X550283Y338307D01*
X550364Y338263D01*
X551308Y337915D01*
X551358Y337906D01*
X551446Y337881D01*
X552444Y337751D01*
X552487Y337753D01*
G37*
G36*
X524496Y337753D02*
X524496Y337753D01*
X524622Y337752D01*
X525633Y337891D01*
X525681Y337907D01*
X525771Y337926D01*
X526726Y338288D01*
X526769Y338314D01*
X526853Y338353D01*
X527703Y338917D01*
X527740Y338952D01*
X527812Y339009D01*
X528516Y339749D01*
X528544Y339791D01*
X528602Y339862D01*
X529123Y340740D01*
X529141Y340787D01*
X529182Y340869D01*
X529495Y341841D01*
X529502Y341891D01*
X529523Y341980D01*
X529612Y342998D01*
X529607Y343048D01*
X529608Y343139D01*
X529477Y344103D01*
X529461Y344151D01*
X529442Y344240D01*
X529100Y345151D01*
X529074Y345194D01*
X529035Y345278D01*
X528498Y346089D01*
X528463Y346125D01*
X528407Y346198D01*
X527703Y346870D01*
X527661Y346898D01*
X527590Y346956D01*
X526755Y347454D01*
X526707Y347472D01*
X526625Y347512D01*
X525700Y347812D01*
X525649Y347819D01*
X525560Y347841D01*
X524591Y347927D01*
X524544Y347923D01*
X524469Y347926D01*
X523493Y347824D01*
X523445Y347810D01*
X523355Y347794D01*
X522426Y347478D01*
X522382Y347454D01*
X522297Y347417D01*
X521462Y346903D01*
X521425Y346869D01*
X521350Y346815D01*
X520651Y346127D01*
X520621Y346086D01*
X520561Y346017D01*
X520032Y345190D01*
X520013Y345144D01*
X519969Y345063D01*
X519637Y344140D01*
X519629Y344090D01*
X519604Y344001D01*
X519486Y343027D01*
X519489Y342977D01*
X519485Y342891D01*
X519580Y341889D01*
X519594Y341840D01*
X519610Y341750D01*
X519926Y340794D01*
X519950Y340749D01*
X519986Y340665D01*
X520507Y339804D01*
X520540Y339766D01*
X520593Y339691D01*
X521293Y338967D01*
X521334Y338938D01*
X521403Y338877D01*
X522246Y338327D01*
X522292Y338307D01*
X522373Y338263D01*
X523317Y337915D01*
X523367Y337906D01*
X523455Y337881D01*
X524453Y337751D01*
X524496Y337753D01*
G37*
G36*
X198086Y598227D02*
X198086Y598227D01*
X198161Y598224D01*
X199137Y598326D01*
X199185Y598340D01*
X199275Y598356D01*
X200204Y598672D01*
X200248Y598697D01*
X200333Y598733D01*
X201168Y599247D01*
X201205Y599281D01*
X201280Y599335D01*
X201980Y600023D01*
X202009Y600064D01*
X202069Y600133D01*
X202598Y600960D01*
X202617Y601006D01*
X202661Y601087D01*
X202993Y602010D01*
X203001Y602060D01*
X203026Y602149D01*
X203144Y603123D01*
X203141Y603173D01*
X203145Y603259D01*
X203050Y604261D01*
X203036Y604310D01*
X203020Y604400D01*
X202704Y605356D01*
X202680Y605401D01*
X202645Y605485D01*
X202123Y606346D01*
X202090Y606384D01*
X202037Y606459D01*
X201337Y607183D01*
X201296Y607212D01*
X201227Y607273D01*
X200384Y607823D01*
X200338Y607843D01*
X200257Y607887D01*
X199313Y608235D01*
X199263Y608244D01*
X199175Y608269D01*
X198177Y608399D01*
X198134Y608397D01*
X198008Y608398D01*
X196997Y608259D01*
X196949Y608243D01*
X196859Y608224D01*
X195904Y607862D01*
X195861Y607836D01*
X195777Y607798D01*
X194927Y607233D01*
X194890Y607198D01*
X194818Y607141D01*
X194114Y606402D01*
X194086Y606359D01*
X194028Y606288D01*
X193507Y605410D01*
X193489Y605363D01*
X193448Y605281D01*
X193135Y604309D01*
X193128Y604259D01*
X193107Y604170D01*
X193018Y603152D01*
X193023Y603102D01*
X193022Y603011D01*
X193153Y602047D01*
X193169Y601999D01*
X193188Y601910D01*
X193530Y600999D01*
X193556Y600956D01*
X193595Y600873D01*
X194132Y600061D01*
X194167Y600025D01*
X194223Y599952D01*
X194927Y599280D01*
X194969Y599253D01*
X195040Y599194D01*
X195876Y598696D01*
X195923Y598678D01*
X196005Y598638D01*
X196931Y598338D01*
X196981Y598331D01*
X197070Y598309D01*
X198039Y598223D01*
X198086Y598227D01*
G37*
G36*
X170095Y598227D02*
X170095Y598227D01*
X170170Y598224D01*
X171146Y598326D01*
X171194Y598340D01*
X171284Y598356D01*
X172213Y598672D01*
X172257Y598697D01*
X172342Y598733D01*
X173177Y599247D01*
X173214Y599281D01*
X173289Y599335D01*
X173989Y600023D01*
X174018Y600064D01*
X174078Y600133D01*
X174607Y600960D01*
X174626Y601006D01*
X174670Y601087D01*
X175002Y602010D01*
X175010Y602060D01*
X175035Y602149D01*
X175153Y603123D01*
X175150Y603173D01*
X175154Y603259D01*
X175059Y604261D01*
X175045Y604310D01*
X175029Y604400D01*
X174713Y605356D01*
X174689Y605401D01*
X174654Y605485D01*
X174132Y606346D01*
X174099Y606384D01*
X174046Y606459D01*
X173346Y607183D01*
X173305Y607212D01*
X173236Y607273D01*
X172393Y607823D01*
X172347Y607843D01*
X172266Y607887D01*
X171322Y608235D01*
X171272Y608244D01*
X171184Y608269D01*
X170186Y608399D01*
X170143Y608397D01*
X170017Y608398D01*
X169006Y608259D01*
X168958Y608243D01*
X168868Y608224D01*
X167913Y607862D01*
X167870Y607836D01*
X167786Y607798D01*
X166936Y607233D01*
X166899Y607198D01*
X166827Y607141D01*
X166123Y606402D01*
X166095Y606359D01*
X166037Y606288D01*
X165516Y605410D01*
X165498Y605363D01*
X165457Y605281D01*
X165144Y604309D01*
X165137Y604259D01*
X165116Y604170D01*
X165027Y603152D01*
X165032Y603102D01*
X165031Y603011D01*
X165162Y602047D01*
X165178Y601999D01*
X165197Y601910D01*
X165539Y600999D01*
X165565Y600956D01*
X165604Y600873D01*
X166141Y600061D01*
X166176Y600025D01*
X166232Y599952D01*
X166936Y599280D01*
X166978Y599253D01*
X167049Y599194D01*
X167885Y598696D01*
X167932Y598678D01*
X168014Y598638D01*
X168940Y598338D01*
X168990Y598331D01*
X169079Y598309D01*
X170048Y598223D01*
X170095Y598227D01*
G37*
G36*
X189145Y332797D02*
X189145Y332797D01*
X189220Y332794D01*
X190196Y332896D01*
X190244Y332910D01*
X190334Y332926D01*
X191263Y333242D01*
X191307Y333267D01*
X191392Y333303D01*
X192227Y333817D01*
X192264Y333851D01*
X192339Y333905D01*
X193039Y334593D01*
X193068Y334634D01*
X193128Y334703D01*
X193657Y335530D01*
X193676Y335576D01*
X193720Y335657D01*
X194052Y336580D01*
X194060Y336630D01*
X194085Y336719D01*
X194203Y337693D01*
X194200Y337743D01*
X194204Y337829D01*
X194109Y338831D01*
X194095Y338880D01*
X194079Y338970D01*
X193763Y339926D01*
X193739Y339971D01*
X193704Y340055D01*
X193182Y340916D01*
X193149Y340954D01*
X193096Y341029D01*
X192396Y341753D01*
X192355Y341782D01*
X192286Y341843D01*
X191443Y342393D01*
X191397Y342413D01*
X191316Y342457D01*
X190372Y342805D01*
X190322Y342814D01*
X190234Y342839D01*
X189236Y342969D01*
X189193Y342967D01*
X189067Y342968D01*
X188056Y342829D01*
X188008Y342813D01*
X187918Y342794D01*
X186963Y342432D01*
X186920Y342406D01*
X186836Y342368D01*
X185986Y341803D01*
X185949Y341768D01*
X185877Y341711D01*
X185173Y340972D01*
X185145Y340929D01*
X185087Y340858D01*
X184566Y339980D01*
X184548Y339933D01*
X184507Y339851D01*
X184194Y338879D01*
X184187Y338829D01*
X184166Y338740D01*
X184077Y337722D01*
X184082Y337672D01*
X184081Y337581D01*
X184212Y336617D01*
X184228Y336569D01*
X184247Y336480D01*
X184589Y335569D01*
X184615Y335526D01*
X184654Y335443D01*
X185191Y334631D01*
X185226Y334595D01*
X185282Y334522D01*
X185986Y333850D01*
X186028Y333823D01*
X186099Y333764D01*
X186935Y333266D01*
X186982Y333248D01*
X187064Y333208D01*
X187990Y332908D01*
X188040Y332901D01*
X188129Y332879D01*
X189098Y332793D01*
X189145Y332797D01*
G37*
G36*
X217136Y332797D02*
X217136Y332797D01*
X217211Y332794D01*
X218187Y332896D01*
X218235Y332910D01*
X218325Y332926D01*
X219254Y333242D01*
X219298Y333267D01*
X219383Y333303D01*
X220218Y333817D01*
X220255Y333851D01*
X220330Y333905D01*
X221030Y334593D01*
X221059Y334634D01*
X221119Y334703D01*
X221648Y335530D01*
X221667Y335576D01*
X221711Y335657D01*
X222043Y336580D01*
X222051Y336630D01*
X222076Y336719D01*
X222194Y337693D01*
X222191Y337743D01*
X222195Y337829D01*
X222100Y338831D01*
X222086Y338880D01*
X222070Y338970D01*
X221754Y339926D01*
X221730Y339971D01*
X221695Y340055D01*
X221173Y340916D01*
X221140Y340954D01*
X221087Y341029D01*
X220387Y341753D01*
X220346Y341782D01*
X220277Y341843D01*
X219434Y342393D01*
X219388Y342413D01*
X219307Y342457D01*
X218363Y342805D01*
X218313Y342814D01*
X218225Y342839D01*
X217227Y342969D01*
X217184Y342967D01*
X217058Y342968D01*
X216047Y342829D01*
X215999Y342813D01*
X215909Y342794D01*
X214954Y342432D01*
X214911Y342406D01*
X214827Y342368D01*
X213977Y341803D01*
X213940Y341768D01*
X213868Y341711D01*
X213164Y340972D01*
X213136Y340929D01*
X213078Y340858D01*
X212557Y339980D01*
X212539Y339933D01*
X212498Y339851D01*
X212185Y338879D01*
X212178Y338829D01*
X212157Y338740D01*
X212068Y337722D01*
X212073Y337672D01*
X212072Y337581D01*
X212203Y336617D01*
X212219Y336569D01*
X212238Y336480D01*
X212580Y335569D01*
X212606Y335526D01*
X212645Y335443D01*
X213182Y334631D01*
X213217Y334595D01*
X213273Y334522D01*
X213977Y333850D01*
X214019Y333823D01*
X214090Y333764D01*
X214926Y333266D01*
X214973Y333248D01*
X215055Y333208D01*
X215981Y332908D01*
X216031Y332901D01*
X216120Y332879D01*
X217089Y332793D01*
X217136Y332797D01*
G37*
D10*
X63500Y800100D03*
X622300Y800100D03*
X104140Y76200D03*
X622300Y50800D03*
D11*
X266700Y637540D03*
X307975Y637540D03*
X349250Y637540D03*
X390525Y637540D03*
X431800Y637540D03*
D12*
X589915Y728980D02*
X589915Y744220D01*
X564515Y744220D02*
X564515Y728980D01*
X539115Y728980D02*
X539115Y744220D01*
X513715Y744220D02*
X513715Y728980D01*
X488315Y728980D02*
X488315Y744220D01*
X176964Y742919D02*
X177336Y727683D01*
X151944Y727063D02*
X151571Y742298D01*
X126179Y741678D02*
X126551Y726442D01*
X101159Y725822D02*
X100786Y741057D01*
X75394Y740437D02*
X75766Y725201D01*
X438785Y579120D02*
X454025Y579120D01*
X454025Y553720D02*
X438785Y553720D01*
X438785Y528320D02*
X454025Y528320D01*
X454025Y502920D02*
X438785Y502920D01*
X438785Y477520D02*
X454025Y477520D01*
X446405Y261620D02*
X431165Y261620D01*
X431165Y236220D02*
X446405Y236220D01*
X446405Y210820D02*
X431165Y210820D01*
X431165Y185420D02*
X446405Y185420D01*
X446405Y160020D02*
X431165Y160020D01*
D13*
X306070Y594360D03*
X331470Y594360D03*
X306070Y568960D03*
X331470Y568960D03*
X306070Y543560D03*
X331470Y543560D03*
X306070Y518160D03*
X331470Y518160D03*
X306070Y492760D03*
X331470Y492760D03*
X306070Y467360D03*
X331470Y467360D03*
X306070Y441960D03*
X331470Y441960D03*
X306070Y416560D03*
X331470Y416560D03*
X306070Y391160D03*
X331470Y391160D03*
X306070Y365760D03*
X331470Y365760D03*
X306070Y340360D03*
X331470Y340360D03*
X306070Y314960D03*
X331470Y314960D03*
X306070Y289560D03*
X331470Y289560D03*
X306070Y264160D03*
X331470Y264160D03*
X306070Y238760D03*
X331470Y238760D03*
X306070Y213360D03*
X331470Y213360D03*
X306070Y187960D03*
X331470Y187960D03*
X306070Y162560D03*
X331470Y162560D03*
X306070Y137160D03*
X331470Y137160D03*
X306070Y111760D03*
X331470Y111760D03*
D14*
X247904Y378460D02*
X234696Y378460D01*
X234696Y403860D02*
X247904Y403860D01*
X247904Y480060D02*
X234696Y480060D01*
X234696Y505460D02*
X247904Y505460D01*
X247904Y429260D02*
X234696Y429260D01*
X234696Y454660D02*
X247904Y454660D01*
X247904Y530860D02*
X234696Y530860D01*
X234696Y556260D02*
X247904Y556260D01*
X171704Y556260D02*
X158496Y556260D01*
X158496Y530860D02*
X171704Y530860D01*
X171704Y505460D02*
X158496Y505460D01*
X158496Y480060D02*
X171704Y480060D01*
X171704Y454660D02*
X158496Y454660D01*
X158496Y429260D02*
X171704Y429260D01*
X171704Y403860D02*
X158496Y403860D01*
X158496Y378460D02*
X171704Y378460D01*
X234696Y123190D02*
X247904Y123190D01*
X247904Y148590D02*
X234696Y148590D01*
X234696Y224790D02*
X247904Y224790D01*
X247904Y250190D02*
X234696Y250190D01*
X234696Y173990D02*
X247904Y173990D01*
X247904Y199390D02*
X234696Y199390D01*
X234696Y275590D02*
X247904Y275590D01*
X247904Y300990D02*
X234696Y300990D01*
X171704Y300990D02*
X158496Y300990D01*
X158496Y275590D02*
X171704Y275590D01*
X171704Y250190D02*
X158496Y250190D01*
X158496Y224790D02*
X171704Y224790D01*
X171704Y199390D02*
X158496Y199390D01*
X158496Y173990D02*
X171704Y173990D01*
X171704Y148590D02*
X158496Y148590D01*
X158496Y123190D02*
X171704Y123190D01*
X569976Y131233D02*
X583184Y131233D01*
X583184Y156633D02*
X569976Y156633D01*
X569976Y232833D02*
X583184Y232833D01*
X583184Y258233D02*
X569976Y258233D01*
X569976Y182033D02*
X583184Y182033D01*
X583184Y207433D02*
X569976Y207433D01*
X569976Y283633D02*
X583184Y283633D01*
X583184Y309033D02*
X569976Y309033D01*
X506984Y309033D02*
X493776Y309033D01*
X493776Y283633D02*
X506984Y283633D01*
X506984Y258233D02*
X493776Y258233D01*
X493776Y232833D02*
X506984Y232833D01*
X506984Y207433D02*
X493776Y207433D01*
X493776Y182033D02*
X506984Y182033D01*
X506984Y156633D02*
X493776Y156633D01*
X493776Y131233D02*
X506984Y131233D01*
X569976Y450850D02*
X583184Y450850D01*
X583184Y476250D02*
X569976Y476250D01*
X569976Y552450D02*
X583184Y552450D01*
X583184Y577850D02*
X569976Y577850D01*
X569976Y501650D02*
X583184Y501650D01*
X583184Y527050D02*
X569976Y527050D01*
X569976Y603250D02*
X583184Y603250D01*
X583184Y628650D02*
X569976Y628650D01*
X506984Y628650D02*
X493776Y628650D01*
X493776Y603250D02*
X506984Y603250D01*
X506984Y577850D02*
X493776Y577850D01*
X493776Y552450D02*
X506984Y552450D01*
X506984Y527050D02*
X493776Y527050D01*
X493776Y501650D02*
X506984Y501650D01*
X506984Y476250D02*
X493776Y476250D01*
X493776Y450850D02*
X506984Y450850D01*
D15*
X349250Y723900D03*
X431800Y723900D03*
X390525Y676275D03*
X266700Y676275D03*
X307975Y676275D03*
X307975Y723900D03*
D16*
X431800Y676275D03*
D15*
X349250Y676275D03*
X390525Y723900D03*
X266700Y723900D03*
M02*
