G04 EAGLE Gerber RS-274X export*
G75*
%MOMM*%
%FSLAX34Y34*%
%LPD*%
%INSoldermask Bottom*%
%IPPOS*%
%AMOC8*
5,1,8,0,0,1.08239X$1,22.5*%
G01*
%ADD10C,2.108200*%
%ADD11C,1.727200*%
%ADD12C,1.727200*%
%ADD13P,1.869504X8X292.500000*%
%ADD14C,1.524000*%
%ADD15P,2.969212X8X22.500000*%
%ADD16P,2.969212X8X112.500000*%

G36*
X547911Y652476D02*
X547911Y652476D01*
X547954Y652488D01*
X548020Y652496D01*
X549637Y652950D01*
X549678Y652970D01*
X549706Y652979D01*
X549716Y652980D01*
X549720Y652983D01*
X549741Y652989D01*
X551255Y653718D01*
X551291Y653744D01*
X551350Y653774D01*
X552715Y654754D01*
X552746Y654786D01*
X552799Y654826D01*
X553973Y656029D01*
X553998Y656066D01*
X554043Y656114D01*
X554990Y657502D01*
X555008Y657543D01*
X555044Y657598D01*
X555736Y659130D01*
X555747Y659173D01*
X555773Y659234D01*
X556188Y660862D01*
X556191Y660907D01*
X556206Y660971D01*
X556332Y662647D01*
X556328Y662694D01*
X556330Y662765D01*
X556125Y664601D01*
X556111Y664647D01*
X556099Y664723D01*
X555539Y666483D01*
X555516Y666526D01*
X555490Y666598D01*
X554597Y668215D01*
X554567Y668252D01*
X554527Y668317D01*
X553336Y669730D01*
X553299Y669760D01*
X553247Y669816D01*
X551803Y670969D01*
X551761Y670992D01*
X551699Y671037D01*
X550058Y671886D01*
X550012Y671900D01*
X549943Y671932D01*
X548168Y672445D01*
X548120Y672449D01*
X548045Y672467D01*
X546205Y672624D01*
X546161Y672620D01*
X546096Y672623D01*
X544265Y672464D01*
X544219Y672451D01*
X544143Y672441D01*
X542379Y671927D01*
X542335Y671905D01*
X542263Y671880D01*
X540633Y671032D01*
X540595Y671003D01*
X540529Y670964D01*
X539096Y669814D01*
X539064Y669777D01*
X539007Y669727D01*
X537826Y668319D01*
X537802Y668277D01*
X537756Y668216D01*
X537546Y667835D01*
X536872Y666605D01*
X536857Y666560D01*
X536823Y666491D01*
X536271Y664738D01*
X536265Y664690D01*
X536245Y664616D01*
X536046Y662790D01*
X536049Y662744D01*
X536043Y662675D01*
X536166Y660998D01*
X536177Y660955D01*
X536183Y660889D01*
X536595Y659260D01*
X536613Y659219D01*
X536631Y659155D01*
X537319Y657622D01*
X537344Y657585D01*
X537373Y657526D01*
X538317Y656135D01*
X538348Y656103D01*
X538386Y656050D01*
X539557Y654844D01*
X539594Y654818D01*
X539641Y654772D01*
X541003Y653788D01*
X541044Y653769D01*
X541098Y653731D01*
X542611Y652999D01*
X542654Y652987D01*
X542665Y652982D01*
X542692Y652968D01*
X542697Y652968D01*
X542714Y652960D01*
X544331Y652501D01*
X544376Y652497D01*
X544440Y652480D01*
X546112Y652310D01*
X546160Y652313D01*
X546239Y652310D01*
X547911Y652476D01*
G37*
G36*
X519920Y652476D02*
X519920Y652476D01*
X519963Y652488D01*
X520029Y652496D01*
X521646Y652950D01*
X521687Y652970D01*
X521715Y652979D01*
X521725Y652980D01*
X521729Y652983D01*
X521750Y652989D01*
X523264Y653718D01*
X523300Y653744D01*
X523359Y653774D01*
X524724Y654754D01*
X524755Y654786D01*
X524808Y654826D01*
X525982Y656029D01*
X526007Y656066D01*
X526052Y656114D01*
X526999Y657502D01*
X527017Y657543D01*
X527053Y657598D01*
X527745Y659130D01*
X527756Y659173D01*
X527782Y659234D01*
X528197Y660862D01*
X528200Y660907D01*
X528215Y660971D01*
X528341Y662647D01*
X528337Y662694D01*
X528339Y662765D01*
X528134Y664601D01*
X528120Y664647D01*
X528108Y664723D01*
X527548Y666483D01*
X527525Y666526D01*
X527499Y666598D01*
X526606Y668215D01*
X526576Y668252D01*
X526536Y668317D01*
X525345Y669730D01*
X525308Y669760D01*
X525256Y669816D01*
X523812Y670969D01*
X523770Y670992D01*
X523708Y671037D01*
X522067Y671886D01*
X522021Y671900D01*
X521952Y671932D01*
X520177Y672445D01*
X520129Y672449D01*
X520054Y672467D01*
X518214Y672624D01*
X518170Y672620D01*
X518105Y672623D01*
X516274Y672464D01*
X516228Y672451D01*
X516152Y672441D01*
X514388Y671927D01*
X514344Y671905D01*
X514272Y671880D01*
X512642Y671032D01*
X512604Y671003D01*
X512538Y670964D01*
X511105Y669814D01*
X511073Y669777D01*
X511016Y669727D01*
X509835Y668319D01*
X509811Y668277D01*
X509765Y668216D01*
X509555Y667835D01*
X508881Y666605D01*
X508866Y666560D01*
X508832Y666491D01*
X508280Y664738D01*
X508274Y664690D01*
X508254Y664616D01*
X508055Y662790D01*
X508058Y662744D01*
X508052Y662675D01*
X508175Y660998D01*
X508186Y660955D01*
X508192Y660889D01*
X508604Y659260D01*
X508622Y659219D01*
X508640Y659155D01*
X509328Y657622D01*
X509353Y657585D01*
X509382Y657526D01*
X510326Y656135D01*
X510357Y656103D01*
X510395Y656050D01*
X511566Y654844D01*
X511603Y654818D01*
X511650Y654772D01*
X513012Y653788D01*
X513053Y653769D01*
X513107Y653731D01*
X514620Y652999D01*
X514663Y652987D01*
X514674Y652982D01*
X514701Y652968D01*
X514706Y652968D01*
X514723Y652960D01*
X516340Y652501D01*
X516385Y652497D01*
X516449Y652480D01*
X518121Y652310D01*
X518169Y652313D01*
X518248Y652310D01*
X519920Y652476D01*
G37*
G36*
X526270Y332859D02*
X526270Y332859D01*
X526313Y332871D01*
X526379Y332880D01*
X527996Y333334D01*
X528037Y333353D01*
X528065Y333362D01*
X528075Y333364D01*
X528079Y333366D01*
X528100Y333373D01*
X529614Y334101D01*
X529650Y334127D01*
X529709Y334157D01*
X531074Y335138D01*
X531105Y335170D01*
X531158Y335210D01*
X532332Y336412D01*
X532357Y336449D01*
X532402Y336497D01*
X533349Y337885D01*
X533367Y337926D01*
X533403Y337982D01*
X534095Y339513D01*
X534106Y339556D01*
X534132Y339617D01*
X534547Y341246D01*
X534550Y341290D01*
X534565Y341355D01*
X534691Y343030D01*
X534687Y343077D01*
X534689Y343149D01*
X534484Y344985D01*
X534470Y345031D01*
X534458Y345106D01*
X533898Y346867D01*
X533875Y346909D01*
X533849Y346981D01*
X532956Y348598D01*
X532926Y348636D01*
X532886Y348701D01*
X531695Y350113D01*
X531658Y350144D01*
X531606Y350200D01*
X530162Y351353D01*
X530120Y351376D01*
X530058Y351420D01*
X528417Y352269D01*
X528371Y352284D01*
X528302Y352315D01*
X526527Y352828D01*
X526479Y352833D01*
X526404Y352851D01*
X524564Y353007D01*
X524520Y353003D01*
X524455Y353007D01*
X522624Y352847D01*
X522578Y352834D01*
X522502Y352824D01*
X520738Y352310D01*
X520694Y352289D01*
X520622Y352264D01*
X518992Y351415D01*
X518954Y351386D01*
X518888Y351347D01*
X517455Y350197D01*
X517423Y350161D01*
X517366Y350110D01*
X516185Y348702D01*
X516161Y348661D01*
X516115Y348600D01*
X515905Y348218D01*
X515231Y346988D01*
X515216Y346943D01*
X515182Y346874D01*
X514630Y345121D01*
X514624Y345074D01*
X514604Y345000D01*
X514405Y343173D01*
X514408Y343127D01*
X514402Y343058D01*
X514525Y341382D01*
X514536Y341339D01*
X514542Y341273D01*
X514954Y339643D01*
X514972Y339603D01*
X514990Y339539D01*
X515678Y338006D01*
X515703Y337969D01*
X515732Y337909D01*
X516676Y336519D01*
X516707Y336487D01*
X516745Y336433D01*
X517916Y335227D01*
X517953Y335201D01*
X518000Y335155D01*
X519362Y334171D01*
X519403Y334152D01*
X519457Y334115D01*
X520970Y333382D01*
X521013Y333370D01*
X521024Y333365D01*
X521051Y333352D01*
X521056Y333351D01*
X521073Y333343D01*
X522690Y332885D01*
X522735Y332880D01*
X522799Y332864D01*
X524471Y332693D01*
X524519Y332697D01*
X524598Y332693D01*
X526270Y332859D01*
G37*
G36*
X554261Y332859D02*
X554261Y332859D01*
X554304Y332871D01*
X554370Y332880D01*
X555987Y333334D01*
X556028Y333353D01*
X556056Y333362D01*
X556066Y333364D01*
X556070Y333366D01*
X556091Y333373D01*
X557605Y334101D01*
X557641Y334127D01*
X557700Y334157D01*
X559065Y335138D01*
X559096Y335170D01*
X559149Y335210D01*
X560323Y336412D01*
X560348Y336449D01*
X560393Y336497D01*
X561340Y337885D01*
X561358Y337926D01*
X561394Y337982D01*
X562086Y339513D01*
X562097Y339556D01*
X562123Y339617D01*
X562538Y341246D01*
X562541Y341290D01*
X562556Y341355D01*
X562682Y343030D01*
X562678Y343077D01*
X562680Y343149D01*
X562475Y344985D01*
X562461Y345031D01*
X562449Y345106D01*
X561889Y346867D01*
X561866Y346909D01*
X561840Y346981D01*
X560947Y348598D01*
X560917Y348636D01*
X560877Y348701D01*
X559686Y350113D01*
X559649Y350144D01*
X559597Y350200D01*
X558153Y351353D01*
X558111Y351376D01*
X558049Y351420D01*
X556408Y352269D01*
X556362Y352284D01*
X556293Y352315D01*
X554518Y352828D01*
X554470Y352833D01*
X554395Y352851D01*
X552555Y353007D01*
X552511Y353003D01*
X552446Y353007D01*
X550615Y352847D01*
X550569Y352834D01*
X550493Y352824D01*
X548729Y352310D01*
X548685Y352289D01*
X548613Y352264D01*
X546983Y351415D01*
X546945Y351386D01*
X546879Y351347D01*
X545446Y350197D01*
X545414Y350161D01*
X545357Y350110D01*
X544176Y348702D01*
X544152Y348661D01*
X544106Y348600D01*
X543896Y348218D01*
X543222Y346988D01*
X543207Y346943D01*
X543173Y346874D01*
X542621Y345121D01*
X542615Y345074D01*
X542595Y345000D01*
X542396Y343173D01*
X542399Y343127D01*
X542393Y343058D01*
X542516Y341382D01*
X542527Y341339D01*
X542533Y341273D01*
X542945Y339643D01*
X542963Y339603D01*
X542981Y339539D01*
X543669Y338006D01*
X543694Y337969D01*
X543723Y337909D01*
X544667Y336519D01*
X544698Y336487D01*
X544736Y336433D01*
X545907Y335227D01*
X545944Y335201D01*
X545991Y335155D01*
X547353Y334171D01*
X547394Y334152D01*
X547448Y334115D01*
X548961Y333382D01*
X549004Y333370D01*
X549015Y333365D01*
X549042Y333352D01*
X549047Y333351D01*
X549064Y333343D01*
X550681Y332885D01*
X550726Y332880D01*
X550790Y332864D01*
X552462Y332693D01*
X552510Y332697D01*
X552589Y332693D01*
X554261Y332859D01*
G37*
G36*
X170119Y593147D02*
X170119Y593147D01*
X170184Y593143D01*
X172015Y593303D01*
X172061Y593316D01*
X172137Y593326D01*
X173901Y593840D01*
X173945Y593861D01*
X174017Y593886D01*
X175647Y594735D01*
X175685Y594764D01*
X175751Y594803D01*
X177184Y595953D01*
X177216Y595989D01*
X177273Y596040D01*
X178454Y597448D01*
X178478Y597489D01*
X178524Y597550D01*
X179069Y598543D01*
X179408Y599162D01*
X179423Y599207D01*
X179457Y599276D01*
X180009Y601029D01*
X180015Y601076D01*
X180035Y601150D01*
X180235Y602977D01*
X180231Y603023D01*
X180237Y603092D01*
X180114Y604768D01*
X180103Y604811D01*
X180097Y604877D01*
X179686Y606507D01*
X179667Y606547D01*
X179649Y606611D01*
X178961Y608144D01*
X178936Y608181D01*
X178907Y608241D01*
X177963Y609631D01*
X177932Y609663D01*
X177894Y609717D01*
X176723Y610923D01*
X176687Y610949D01*
X176639Y610995D01*
X175277Y611979D01*
X175236Y611998D01*
X175182Y612035D01*
X173669Y612768D01*
X173626Y612780D01*
X173566Y612807D01*
X171949Y613265D01*
X171904Y613270D01*
X171840Y613286D01*
X170168Y613457D01*
X170120Y613453D01*
X170041Y613457D01*
X168369Y613291D01*
X168326Y613279D01*
X168261Y613270D01*
X166643Y612816D01*
X166602Y612797D01*
X166539Y612777D01*
X165025Y612049D01*
X164989Y612023D01*
X164930Y611993D01*
X163565Y611012D01*
X163534Y610980D01*
X163481Y610940D01*
X162307Y609738D01*
X162282Y609701D01*
X162237Y609653D01*
X161290Y608265D01*
X161272Y608224D01*
X161236Y608168D01*
X160544Y606637D01*
X160533Y606594D01*
X160507Y606533D01*
X160092Y604904D01*
X160089Y604860D01*
X160074Y604795D01*
X159948Y603120D01*
X159952Y603073D01*
X159950Y603001D01*
X160155Y601166D01*
X160169Y601119D01*
X160181Y601044D01*
X160741Y599283D01*
X160764Y599241D01*
X160790Y599169D01*
X161683Y597552D01*
X161713Y597514D01*
X161753Y597449D01*
X162944Y596037D01*
X162981Y596006D01*
X163033Y595950D01*
X164477Y594797D01*
X164519Y594775D01*
X164581Y594730D01*
X166222Y593881D01*
X166268Y593867D01*
X166337Y593835D01*
X168112Y593322D01*
X168160Y593317D01*
X168235Y593300D01*
X170075Y593143D01*
X170119Y593147D01*
G37*
G36*
X198110Y593147D02*
X198110Y593147D01*
X198175Y593143D01*
X200006Y593303D01*
X200052Y593316D01*
X200128Y593326D01*
X201892Y593840D01*
X201936Y593861D01*
X202008Y593886D01*
X203638Y594735D01*
X203676Y594764D01*
X203742Y594803D01*
X205175Y595953D01*
X205207Y595989D01*
X205264Y596040D01*
X206445Y597448D01*
X206469Y597489D01*
X206515Y597550D01*
X207060Y598543D01*
X207399Y599162D01*
X207414Y599207D01*
X207448Y599276D01*
X208000Y601029D01*
X208006Y601076D01*
X208026Y601150D01*
X208226Y602977D01*
X208222Y603023D01*
X208228Y603092D01*
X208105Y604768D01*
X208094Y604811D01*
X208088Y604877D01*
X207677Y606507D01*
X207658Y606547D01*
X207640Y606611D01*
X206952Y608144D01*
X206927Y608181D01*
X206898Y608241D01*
X205954Y609631D01*
X205923Y609663D01*
X205885Y609717D01*
X204714Y610923D01*
X204678Y610949D01*
X204630Y610995D01*
X203268Y611979D01*
X203227Y611998D01*
X203173Y612035D01*
X201660Y612768D01*
X201617Y612780D01*
X201557Y612807D01*
X199940Y613265D01*
X199895Y613270D01*
X199831Y613286D01*
X198159Y613457D01*
X198111Y613453D01*
X198032Y613457D01*
X196360Y613291D01*
X196317Y613279D01*
X196252Y613270D01*
X194634Y612816D01*
X194593Y612797D01*
X194530Y612777D01*
X193016Y612049D01*
X192980Y612023D01*
X192921Y611993D01*
X191556Y611012D01*
X191525Y610980D01*
X191472Y610940D01*
X190298Y609738D01*
X190273Y609701D01*
X190228Y609653D01*
X189281Y608265D01*
X189263Y608224D01*
X189227Y608168D01*
X188535Y606637D01*
X188524Y606594D01*
X188498Y606533D01*
X188083Y604904D01*
X188080Y604860D01*
X188065Y604795D01*
X187939Y603120D01*
X187943Y603073D01*
X187941Y603001D01*
X188146Y601166D01*
X188160Y601119D01*
X188172Y601044D01*
X188732Y599283D01*
X188755Y599241D01*
X188781Y599169D01*
X189674Y597552D01*
X189704Y597514D01*
X189744Y597449D01*
X190935Y596037D01*
X190972Y596006D01*
X191024Y595950D01*
X192468Y594797D01*
X192510Y594775D01*
X192572Y594730D01*
X194213Y593881D01*
X194259Y593867D01*
X194328Y593835D01*
X196103Y593322D01*
X196151Y593317D01*
X196226Y593300D01*
X198066Y593143D01*
X198110Y593147D01*
G37*
G36*
X217160Y327717D02*
X217160Y327717D01*
X217225Y327713D01*
X219056Y327873D01*
X219102Y327886D01*
X219178Y327896D01*
X220942Y328410D01*
X220986Y328431D01*
X221058Y328456D01*
X222688Y329305D01*
X222726Y329334D01*
X222792Y329373D01*
X224225Y330523D01*
X224257Y330559D01*
X224314Y330610D01*
X225495Y332018D01*
X225519Y332059D01*
X225565Y332120D01*
X226110Y333113D01*
X226449Y333732D01*
X226464Y333777D01*
X226498Y333846D01*
X227050Y335599D01*
X227056Y335646D01*
X227076Y335720D01*
X227276Y337547D01*
X227272Y337593D01*
X227278Y337662D01*
X227155Y339338D01*
X227144Y339381D01*
X227138Y339447D01*
X226727Y341077D01*
X226708Y341117D01*
X226690Y341181D01*
X226002Y342714D01*
X225977Y342751D01*
X225948Y342811D01*
X225004Y344201D01*
X224973Y344233D01*
X224935Y344287D01*
X223764Y345493D01*
X223728Y345519D01*
X223680Y345565D01*
X222318Y346549D01*
X222277Y346568D01*
X222223Y346605D01*
X220710Y347338D01*
X220667Y347350D01*
X220607Y347377D01*
X218990Y347835D01*
X218945Y347840D01*
X218881Y347856D01*
X217209Y348027D01*
X217161Y348023D01*
X217082Y348027D01*
X215410Y347861D01*
X215367Y347849D01*
X215302Y347840D01*
X213684Y347386D01*
X213643Y347367D01*
X213580Y347347D01*
X212066Y346619D01*
X212030Y346593D01*
X211971Y346563D01*
X210606Y345582D01*
X210575Y345550D01*
X210522Y345510D01*
X209348Y344308D01*
X209323Y344271D01*
X209278Y344223D01*
X208331Y342835D01*
X208313Y342794D01*
X208277Y342738D01*
X207585Y341207D01*
X207574Y341164D01*
X207548Y341103D01*
X207133Y339474D01*
X207130Y339430D01*
X207115Y339365D01*
X206989Y337690D01*
X206993Y337643D01*
X206991Y337571D01*
X207196Y335736D01*
X207210Y335689D01*
X207222Y335614D01*
X207782Y333853D01*
X207805Y333811D01*
X207831Y333739D01*
X208724Y332122D01*
X208754Y332084D01*
X208794Y332019D01*
X209985Y330607D01*
X210022Y330576D01*
X210074Y330520D01*
X211518Y329367D01*
X211560Y329345D01*
X211622Y329300D01*
X213263Y328451D01*
X213309Y328437D01*
X213378Y328405D01*
X215153Y327892D01*
X215201Y327887D01*
X215276Y327870D01*
X217116Y327713D01*
X217160Y327717D01*
G37*
G36*
X189169Y327717D02*
X189169Y327717D01*
X189234Y327713D01*
X191065Y327873D01*
X191111Y327886D01*
X191187Y327896D01*
X192951Y328410D01*
X192995Y328431D01*
X193067Y328456D01*
X194697Y329305D01*
X194735Y329334D01*
X194801Y329373D01*
X196234Y330523D01*
X196266Y330559D01*
X196323Y330610D01*
X197504Y332018D01*
X197528Y332059D01*
X197574Y332120D01*
X198119Y333113D01*
X198458Y333732D01*
X198473Y333777D01*
X198507Y333846D01*
X199059Y335599D01*
X199065Y335646D01*
X199085Y335720D01*
X199285Y337547D01*
X199281Y337593D01*
X199287Y337662D01*
X199164Y339338D01*
X199153Y339381D01*
X199147Y339447D01*
X198736Y341077D01*
X198717Y341117D01*
X198699Y341181D01*
X198011Y342714D01*
X197986Y342751D01*
X197957Y342811D01*
X197013Y344201D01*
X196982Y344233D01*
X196944Y344287D01*
X195773Y345493D01*
X195737Y345519D01*
X195689Y345565D01*
X194327Y346549D01*
X194286Y346568D01*
X194232Y346605D01*
X192719Y347338D01*
X192676Y347350D01*
X192616Y347377D01*
X190999Y347835D01*
X190954Y347840D01*
X190890Y347856D01*
X189218Y348027D01*
X189170Y348023D01*
X189091Y348027D01*
X187419Y347861D01*
X187376Y347849D01*
X187311Y347840D01*
X185693Y347386D01*
X185652Y347367D01*
X185589Y347347D01*
X184075Y346619D01*
X184039Y346593D01*
X183980Y346563D01*
X182615Y345582D01*
X182584Y345550D01*
X182531Y345510D01*
X181357Y344308D01*
X181332Y344271D01*
X181287Y344223D01*
X180340Y342835D01*
X180322Y342794D01*
X180286Y342738D01*
X179594Y341207D01*
X179583Y341164D01*
X179557Y341103D01*
X179142Y339474D01*
X179139Y339430D01*
X179124Y339365D01*
X178998Y337690D01*
X179002Y337643D01*
X179000Y337571D01*
X179205Y335736D01*
X179219Y335689D01*
X179231Y335614D01*
X179791Y333853D01*
X179814Y333811D01*
X179840Y333739D01*
X180733Y332122D01*
X180763Y332084D01*
X180803Y332019D01*
X181994Y330607D01*
X182031Y330576D01*
X182083Y330520D01*
X183527Y329367D01*
X183569Y329345D01*
X183631Y329300D01*
X185272Y328451D01*
X185318Y328437D01*
X185387Y328405D01*
X187162Y327892D01*
X187210Y327887D01*
X187285Y327870D01*
X189125Y327713D01*
X189169Y327717D01*
G37*
D10*
X63500Y800100D03*
X622300Y800100D03*
X104140Y76200D03*
X622300Y50800D03*
D11*
X266700Y637540D03*
X307975Y637540D03*
X349250Y637540D03*
X390525Y637540D03*
X431800Y637540D03*
D12*
X589915Y728980D02*
X589915Y744220D01*
X564515Y744220D02*
X564515Y728980D01*
X539115Y728980D02*
X539115Y744220D01*
X513715Y744220D02*
X513715Y728980D01*
X488315Y728980D02*
X488315Y744220D01*
X176964Y742919D02*
X177336Y727683D01*
X151944Y727063D02*
X151571Y742298D01*
X126179Y741678D02*
X126551Y726442D01*
X101159Y725822D02*
X100786Y741057D01*
X75394Y740437D02*
X75766Y725201D01*
X438785Y579120D02*
X454025Y579120D01*
X454025Y553720D02*
X438785Y553720D01*
X438785Y528320D02*
X454025Y528320D01*
X454025Y502920D02*
X438785Y502920D01*
X438785Y477520D02*
X454025Y477520D01*
X446405Y261620D02*
X431165Y261620D01*
X431165Y236220D02*
X446405Y236220D01*
X446405Y210820D02*
X431165Y210820D01*
X431165Y185420D02*
X446405Y185420D01*
X446405Y160020D02*
X431165Y160020D01*
D13*
X306070Y594360D03*
X331470Y594360D03*
X306070Y568960D03*
X331470Y568960D03*
X306070Y543560D03*
X331470Y543560D03*
X306070Y518160D03*
X331470Y518160D03*
X306070Y492760D03*
X331470Y492760D03*
X306070Y467360D03*
X331470Y467360D03*
X306070Y441960D03*
X331470Y441960D03*
X306070Y416560D03*
X331470Y416560D03*
X306070Y391160D03*
X331470Y391160D03*
X306070Y365760D03*
X331470Y365760D03*
X306070Y340360D03*
X331470Y340360D03*
X306070Y314960D03*
X331470Y314960D03*
X306070Y289560D03*
X331470Y289560D03*
X306070Y264160D03*
X331470Y264160D03*
X306070Y238760D03*
X331470Y238760D03*
X306070Y213360D03*
X331470Y213360D03*
X306070Y187960D03*
X331470Y187960D03*
X306070Y162560D03*
X331470Y162560D03*
X306070Y137160D03*
X331470Y137160D03*
X306070Y111760D03*
X331470Y111760D03*
D14*
X247904Y378460D02*
X234696Y378460D01*
X234696Y403860D02*
X247904Y403860D01*
X247904Y480060D02*
X234696Y480060D01*
X234696Y505460D02*
X247904Y505460D01*
X247904Y429260D02*
X234696Y429260D01*
X234696Y454660D02*
X247904Y454660D01*
X247904Y530860D02*
X234696Y530860D01*
X234696Y556260D02*
X247904Y556260D01*
X171704Y556260D02*
X158496Y556260D01*
X158496Y530860D02*
X171704Y530860D01*
X171704Y505460D02*
X158496Y505460D01*
X158496Y480060D02*
X171704Y480060D01*
X171704Y454660D02*
X158496Y454660D01*
X158496Y429260D02*
X171704Y429260D01*
X171704Y403860D02*
X158496Y403860D01*
X158496Y378460D02*
X171704Y378460D01*
X234696Y123190D02*
X247904Y123190D01*
X247904Y148590D02*
X234696Y148590D01*
X234696Y224790D02*
X247904Y224790D01*
X247904Y250190D02*
X234696Y250190D01*
X234696Y173990D02*
X247904Y173990D01*
X247904Y199390D02*
X234696Y199390D01*
X234696Y275590D02*
X247904Y275590D01*
X247904Y300990D02*
X234696Y300990D01*
X171704Y300990D02*
X158496Y300990D01*
X158496Y275590D02*
X171704Y275590D01*
X171704Y250190D02*
X158496Y250190D01*
X158496Y224790D02*
X171704Y224790D01*
X171704Y199390D02*
X158496Y199390D01*
X158496Y173990D02*
X171704Y173990D01*
X171704Y148590D02*
X158496Y148590D01*
X158496Y123190D02*
X171704Y123190D01*
X569976Y131233D02*
X583184Y131233D01*
X583184Y156633D02*
X569976Y156633D01*
X569976Y232833D02*
X583184Y232833D01*
X583184Y258233D02*
X569976Y258233D01*
X569976Y182033D02*
X583184Y182033D01*
X583184Y207433D02*
X569976Y207433D01*
X569976Y283633D02*
X583184Y283633D01*
X583184Y309033D02*
X569976Y309033D01*
X506984Y309033D02*
X493776Y309033D01*
X493776Y283633D02*
X506984Y283633D01*
X506984Y258233D02*
X493776Y258233D01*
X493776Y232833D02*
X506984Y232833D01*
X506984Y207433D02*
X493776Y207433D01*
X493776Y182033D02*
X506984Y182033D01*
X506984Y156633D02*
X493776Y156633D01*
X493776Y131233D02*
X506984Y131233D01*
X569976Y450850D02*
X583184Y450850D01*
X583184Y476250D02*
X569976Y476250D01*
X569976Y552450D02*
X583184Y552450D01*
X583184Y577850D02*
X569976Y577850D01*
X569976Y501650D02*
X583184Y501650D01*
X583184Y527050D02*
X569976Y527050D01*
X569976Y603250D02*
X583184Y603250D01*
X583184Y628650D02*
X569976Y628650D01*
X506984Y628650D02*
X493776Y628650D01*
X493776Y603250D02*
X506984Y603250D01*
X506984Y577850D02*
X493776Y577850D01*
X493776Y552450D02*
X506984Y552450D01*
X506984Y527050D02*
X493776Y527050D01*
X493776Y501650D02*
X506984Y501650D01*
X506984Y476250D02*
X493776Y476250D01*
X493776Y450850D02*
X506984Y450850D01*
D15*
X349250Y723900D03*
X431800Y723900D03*
X390525Y676275D03*
X266700Y676275D03*
X307975Y676275D03*
X307975Y723900D03*
D16*
X431800Y676275D03*
D15*
X349250Y676275D03*
X390525Y723900D03*
X266700Y723900D03*
M02*
